G04 #@! TF.GenerationSoftware,KiCad,Pcbnew,(7.0.0)*
G04 #@! TF.CreationDate,2023-03-09T15:16:31+01:00*
G04 #@! TF.ProjectId,asmTest,61736d54-6573-4742-9e6b-696361645f70,rev?*
G04 #@! TF.SameCoordinates,Original*
G04 #@! TF.FileFunction,Soldermask,Top*
G04 #@! TF.FilePolarity,Negative*
%FSLAX46Y46*%
G04 Gerber Fmt 4.6, Leading zero omitted, Abs format (unit mm)*
G04 Created by KiCad (PCBNEW (7.0.0)) date 2023-03-09 15:16:31*
%MOMM*%
%LPD*%
G01*
G04 APERTURE LIST*
G04 Aperture macros list*
%AMRoundRect*
0 Rectangle with rounded corners*
0 $1 Rounding radius*
0 $2 $3 $4 $5 $6 $7 $8 $9 X,Y pos of 4 corners*
0 Add a 4 corners polygon primitive as box body*
4,1,4,$2,$3,$4,$5,$6,$7,$8,$9,$2,$3,0*
0 Add four circle primitives for the rounded corners*
1,1,$1+$1,$2,$3*
1,1,$1+$1,$4,$5*
1,1,$1+$1,$6,$7*
1,1,$1+$1,$8,$9*
0 Add four rect primitives between the rounded corners*
20,1,$1+$1,$2,$3,$4,$5,0*
20,1,$1+$1,$4,$5,$6,$7,0*
20,1,$1+$1,$6,$7,$8,$9,0*
20,1,$1+$1,$8,$9,$2,$3,0*%
%AMFreePoly0*
4,1,17,2.675000,1.605000,1.875000,1.605000,1.875000,0.935000,2.675000,0.935000,2.675000,0.335000,1.875000,0.335000,1.875000,-0.335000,2.675000,-0.335000,2.675000,-0.935000,1.875000,-0.935000,1.875000,-1.605000,2.675000,-1.605000,2.675000,-2.205000,-1.875000,-2.205000,-1.875000,2.205000,2.675000,2.205000,2.675000,1.605000,2.675000,1.605000,$1*%
G04 Aperture macros list end*
%ADD10RoundRect,0.075000X-0.362500X-0.075000X0.362500X-0.075000X0.362500X0.075000X-0.362500X0.075000X0*%
%ADD11R,2.600000X3.000000*%
%ADD12RoundRect,0.250000X-0.362500X-1.425000X0.362500X-1.425000X0.362500X1.425000X-0.362500X1.425000X0*%
%ADD13R,1.600000X1.600000*%
%ADD14O,1.600000X1.600000*%
%ADD15RoundRect,0.200000X-0.200000X-0.275000X0.200000X-0.275000X0.200000X0.275000X-0.200000X0.275000X0*%
%ADD16R,1.700000X1.700000*%
%ADD17O,1.700000X1.700000*%
%ADD18FreePoly0,0.000000*%
%ADD19R,0.850000X0.500000*%
%ADD20RoundRect,0.250000X-0.325000X-0.650000X0.325000X-0.650000X0.325000X0.650000X-0.325000X0.650000X0*%
%ADD21C,3.000000*%
%ADD22RoundRect,0.150000X0.825000X0.150000X-0.825000X0.150000X-0.825000X-0.150000X0.825000X-0.150000X0*%
%ADD23RoundRect,0.150000X-0.825000X-0.150000X0.825000X-0.150000X0.825000X0.150000X-0.825000X0.150000X0*%
%ADD24RoundRect,0.225000X-0.225000X-0.250000X0.225000X-0.250000X0.225000X0.250000X-0.225000X0.250000X0*%
%ADD25R,2.000000X2.000000*%
%ADD26C,2.000000*%
G04 APERTURE END LIST*
D10*
G04 #@! TO.C,U2*
X186127500Y-81950000D03*
X186127500Y-82750000D03*
X186127500Y-83550000D03*
X186127500Y-84350000D03*
X190002500Y-84350000D03*
X190002500Y-83550000D03*
X190002500Y-82750000D03*
X190002500Y-81950000D03*
D11*
X188064999Y-83149999D03*
G04 #@! TD*
D12*
G04 #@! TO.C,R7*
X186075000Y-62900000D03*
X192000000Y-62900000D03*
G04 #@! TD*
D13*
G04 #@! TO.C,U6*
X146379999Y-52879999D03*
D14*
X146379999Y-55419999D03*
X146379999Y-57959999D03*
X146379999Y-60499999D03*
X146379999Y-63039999D03*
X146379999Y-65579999D03*
X146379999Y-68119999D03*
X146379999Y-70659999D03*
X146379999Y-73199999D03*
X146379999Y-75739999D03*
X146379999Y-78279999D03*
X146379999Y-80819999D03*
X146379999Y-83359999D03*
X146379999Y-85899999D03*
X153999999Y-85899999D03*
X153999999Y-83359999D03*
X153999999Y-80819999D03*
X153999999Y-78279999D03*
X153999999Y-75739999D03*
X153999999Y-73199999D03*
X153999999Y-70659999D03*
X153999999Y-68119999D03*
X153999999Y-65579999D03*
X153999999Y-63039999D03*
X153999999Y-60499999D03*
X153999999Y-57959999D03*
X153999999Y-55419999D03*
X153999999Y-52879999D03*
G04 #@! TD*
D15*
G04 #@! TO.C,R5*
X187000000Y-97710000D03*
X188650000Y-97710000D03*
G04 #@! TD*
D16*
G04 #@! TO.C,J1*
X127999999Y-81019999D03*
D17*
X127999999Y-83559999D03*
X127999999Y-86099999D03*
X127999999Y-88639999D03*
X127999999Y-91179999D03*
X127999999Y-93719999D03*
X127999999Y-96259999D03*
X127999999Y-98799999D03*
G04 #@! TD*
D18*
G04 #@! TO.C,Q2*
X181237500Y-57440000D03*
D19*
X177687499Y-55534999D03*
X177687499Y-56804999D03*
X177687499Y-58074999D03*
X177687499Y-59344999D03*
G04 #@! TD*
D20*
G04 #@! TO.C,C2*
X177832500Y-62470000D03*
X180782500Y-62470000D03*
G04 #@! TD*
D21*
G04 #@! TO.C,FID2*
X94400000Y-52500000D03*
G04 #@! TD*
D18*
G04 #@! TO.C,Q4*
X181465000Y-82910000D03*
D19*
X177914999Y-81004999D03*
X177914999Y-82274999D03*
X177914999Y-83544999D03*
X177914999Y-84814999D03*
G04 #@! TD*
D18*
G04 #@! TO.C,Q6*
X182365000Y-104010000D03*
D19*
X178814999Y-102104999D03*
X178814999Y-103374999D03*
X178814999Y-104644999D03*
X178814999Y-105914999D03*
G04 #@! TD*
D15*
G04 #@! TO.C,R2*
X185872500Y-53650000D03*
X187522500Y-53650000D03*
G04 #@! TD*
D20*
G04 #@! TO.C,C6*
X178960000Y-109040000D03*
X181910000Y-109040000D03*
G04 #@! TD*
D16*
G04 #@! TO.C,J5*
X211739999Y-70999999D03*
D17*
X211739999Y-73539999D03*
X211739999Y-76079999D03*
G04 #@! TD*
D22*
G04 #@! TO.C,U4*
X111950000Y-69910000D03*
X111950000Y-68640000D03*
X111950000Y-67370000D03*
X111950000Y-66100000D03*
X107000000Y-66100000D03*
X107000000Y-67370000D03*
X107000000Y-68640000D03*
X107000000Y-69910000D03*
G04 #@! TD*
D18*
G04 #@! TO.C,Q1*
X181237500Y-50730000D03*
D19*
X177687499Y-48824999D03*
X177687499Y-50094999D03*
X177687499Y-51364999D03*
X177687499Y-52634999D03*
G04 #@! TD*
D23*
G04 #@! TO.C,U5*
X157355000Y-52125000D03*
X157355000Y-53395000D03*
X157355000Y-54665000D03*
X157355000Y-55935000D03*
X162305000Y-55935000D03*
X162305000Y-54665000D03*
X162305000Y-53395000D03*
X162305000Y-52125000D03*
G04 #@! TD*
D24*
G04 #@! TO.C,C3*
X186150000Y-74100000D03*
X187700000Y-74100000D03*
G04 #@! TD*
D20*
G04 #@! TO.C,C10*
X145250000Y-103200000D03*
X148200000Y-103200000D03*
G04 #@! TD*
D15*
G04 #@! TO.C,R4*
X186100000Y-79120000D03*
X187750000Y-79120000D03*
G04 #@! TD*
D20*
G04 #@! TO.C,C4*
X186270000Y-87600000D03*
X189220000Y-87600000D03*
G04 #@! TD*
D21*
G04 #@! TO.C,FID1*
X209300000Y-110400000D03*
G04 #@! TD*
D24*
G04 #@! TO.C,C1*
X185922500Y-48630000D03*
X187472500Y-48630000D03*
G04 #@! TD*
D15*
G04 #@! TO.C,R1*
X185872500Y-51140000D03*
X187522500Y-51140000D03*
G04 #@! TD*
D24*
G04 #@! TO.C,C5*
X187050000Y-95200000D03*
X188600000Y-95200000D03*
G04 #@! TD*
D10*
G04 #@! TO.C,U1*
X185900000Y-56480000D03*
X185900000Y-57280000D03*
X185900000Y-58080000D03*
X185900000Y-58880000D03*
X189775000Y-58880000D03*
X189775000Y-58080000D03*
X189775000Y-57280000D03*
X189775000Y-56480000D03*
D11*
X187837499Y-57679999D03*
G04 #@! TD*
D15*
G04 #@! TO.C,R3*
X186100000Y-76610000D03*
X187750000Y-76610000D03*
G04 #@! TD*
D10*
G04 #@! TO.C,U3*
X187027500Y-103050000D03*
X187027500Y-103850000D03*
X187027500Y-104650000D03*
X187027500Y-105450000D03*
X190902500Y-105450000D03*
X190902500Y-104650000D03*
X190902500Y-103850000D03*
X190902500Y-103050000D03*
D11*
X188964999Y-104249999D03*
G04 #@! TD*
D15*
G04 #@! TO.C,R6*
X187000000Y-100220000D03*
X188650000Y-100220000D03*
G04 #@! TD*
D18*
G04 #@! TO.C,Q5*
X182365000Y-97300000D03*
D19*
X178814999Y-95394999D03*
X178814999Y-96664999D03*
X178814999Y-97934999D03*
X178814999Y-99204999D03*
G04 #@! TD*
D18*
G04 #@! TO.C,Q3*
X181465000Y-76200000D03*
D19*
X177914999Y-74294999D03*
X177914999Y-75564999D03*
X177914999Y-76834999D03*
X177914999Y-78104999D03*
G04 #@! TD*
D25*
G04 #@! TO.C,C7*
X204204645Y-84149999D03*
D26*
X209204646Y-84150000D03*
G04 #@! TD*
D16*
G04 #@! TO.C,J4*
X214799999Y-80699999D03*
D17*
X214799999Y-83239999D03*
G04 #@! TD*
D12*
G04 #@! TO.C,R8*
X187202500Y-109470000D03*
X193127500Y-109470000D03*
G04 #@! TD*
M02*
