G04 #@! TF.GenerationSoftware,KiCad,Pcbnew,(7.0.0)*
G04 #@! TF.CreationDate,2023-03-09T15:09:21+01:00*
G04 #@! TF.ProjectId,asmTest,61736d54-6573-4742-9e6b-696361645f70,rev?*
G04 #@! TF.SameCoordinates,Original*
G04 #@! TF.FileFunction,Paste,Top*
G04 #@! TF.FilePolarity,Positive*
%FSLAX46Y46*%
G04 Gerber Fmt 4.6, Leading zero omitted, Abs format (unit mm)*
G04 Created by KiCad (PCBNEW (7.0.0)) date 2023-03-09 15:09:21*
%MOMM*%
%LPD*%
G01*
G04 APERTURE LIST*
G04 Aperture macros list*
%AMRoundRect*
0 Rectangle with rounded corners*
0 $1 Rounding radius*
0 $2 $3 $4 $5 $6 $7 $8 $9 X,Y pos of 4 corners*
0 Add a 4 corners polygon primitive as box body*
4,1,4,$2,$3,$4,$5,$6,$7,$8,$9,$2,$3,0*
0 Add four circle primitives for the rounded corners*
1,1,$1+$1,$2,$3*
1,1,$1+$1,$4,$5*
1,1,$1+$1,$6,$7*
1,1,$1+$1,$8,$9*
0 Add four rect primitives between the rounded corners*
20,1,$1+$1,$2,$3,$4,$5,0*
20,1,$1+$1,$4,$5,$6,$7,0*
20,1,$1+$1,$6,$7,$8,$9,0*
20,1,$1+$1,$8,$9,$2,$3,0*%
G04 Aperture macros list end*
%ADD10RoundRect,0.250000X-0.275000X-0.355000X0.275000X-0.355000X0.275000X0.355000X-0.275000X0.355000X0*%
%ADD11RoundRect,0.075000X-0.362500X-0.075000X0.362500X-0.075000X0.362500X0.075000X-0.362500X0.075000X0*%
%ADD12RoundRect,0.250000X-0.362500X-1.425000X0.362500X-1.425000X0.362500X1.425000X-0.362500X1.425000X0*%
%ADD13RoundRect,0.200000X-0.200000X-0.275000X0.200000X-0.275000X0.200000X0.275000X-0.200000X0.275000X0*%
%ADD14R,1.500000X1.500000*%
%ADD15R,0.750000X0.500000*%
%ADD16R,0.750000X0.400000*%
%ADD17RoundRect,0.250000X-0.325000X-0.650000X0.325000X-0.650000X0.325000X0.650000X-0.325000X0.650000X0*%
%ADD18RoundRect,0.150000X0.825000X0.150000X-0.825000X0.150000X-0.825000X-0.150000X0.825000X-0.150000X0*%
%ADD19RoundRect,0.150000X-0.825000X-0.150000X0.825000X-0.150000X0.825000X0.150000X-0.825000X0.150000X0*%
%ADD20RoundRect,0.225000X-0.225000X-0.250000X0.225000X-0.250000X0.225000X0.250000X-0.225000X0.250000X0*%
G04 APERTURE END LIST*
D10*
G04 #@! TO.C,U2*
X187415000Y-82400000D03*
X187415000Y-83900000D03*
X188715000Y-82400000D03*
X188715000Y-83900000D03*
D11*
X186127500Y-81950000D03*
X186127500Y-82750000D03*
X186127500Y-83550000D03*
X186127500Y-84350000D03*
X190002500Y-84350000D03*
X190002500Y-83550000D03*
X190002500Y-82750000D03*
X190002500Y-81950000D03*
G04 #@! TD*
D12*
G04 #@! TO.C,R7*
X186075000Y-62900000D03*
X192000000Y-62900000D03*
G04 #@! TD*
D13*
G04 #@! TO.C,R5*
X187000000Y-97710000D03*
X188650000Y-97710000D03*
G04 #@! TD*
D14*
G04 #@! TO.C,Q2*
X180387499Y-56589999D03*
X180387499Y-58289999D03*
X182087499Y-56589999D03*
X182087499Y-58289999D03*
D15*
X183492499Y-55534999D03*
X183492499Y-56804999D03*
X183492499Y-58074999D03*
X183492499Y-59344999D03*
D16*
X177687499Y-55534999D03*
X177687499Y-56804999D03*
X177687499Y-58074999D03*
X177687499Y-59344999D03*
G04 #@! TD*
D17*
G04 #@! TO.C,C2*
X177832500Y-62470000D03*
X180782500Y-62470000D03*
G04 #@! TD*
D14*
G04 #@! TO.C,Q4*
X180614999Y-82059999D03*
X180614999Y-83759999D03*
X182314999Y-82059999D03*
X182314999Y-83759999D03*
D15*
X183719999Y-81004999D03*
X183719999Y-82274999D03*
X183719999Y-83544999D03*
X183719999Y-84814999D03*
D16*
X177914999Y-81004999D03*
X177914999Y-82274999D03*
X177914999Y-83544999D03*
X177914999Y-84814999D03*
G04 #@! TD*
D14*
G04 #@! TO.C,Q6*
X181514999Y-103159999D03*
X181514999Y-104859999D03*
X183214999Y-103159999D03*
X183214999Y-104859999D03*
D15*
X184619999Y-102104999D03*
X184619999Y-103374999D03*
X184619999Y-104644999D03*
X184619999Y-105914999D03*
D16*
X178814999Y-102104999D03*
X178814999Y-103374999D03*
X178814999Y-104644999D03*
X178814999Y-105914999D03*
G04 #@! TD*
D13*
G04 #@! TO.C,R2*
X185872500Y-53650000D03*
X187522500Y-53650000D03*
G04 #@! TD*
D17*
G04 #@! TO.C,C6*
X178960000Y-109040000D03*
X181910000Y-109040000D03*
G04 #@! TD*
D18*
G04 #@! TO.C,U4*
X111950000Y-69910000D03*
X111950000Y-68640000D03*
X111950000Y-67370000D03*
X111950000Y-66100000D03*
X107000000Y-66100000D03*
X107000000Y-67370000D03*
X107000000Y-68640000D03*
X107000000Y-69910000D03*
G04 #@! TD*
D14*
G04 #@! TO.C,Q1*
X180387499Y-49879999D03*
X180387499Y-51579999D03*
X182087499Y-49879999D03*
X182087499Y-51579999D03*
D15*
X183492499Y-48824999D03*
X183492499Y-50094999D03*
X183492499Y-51364999D03*
X183492499Y-52634999D03*
D16*
X177687499Y-48824999D03*
X177687499Y-50094999D03*
X177687499Y-51364999D03*
X177687499Y-52634999D03*
G04 #@! TD*
D19*
G04 #@! TO.C,U5*
X157355000Y-52125000D03*
X157355000Y-53395000D03*
X157355000Y-54665000D03*
X157355000Y-55935000D03*
X162305000Y-55935000D03*
X162305000Y-54665000D03*
X162305000Y-53395000D03*
X162305000Y-52125000D03*
G04 #@! TD*
D20*
G04 #@! TO.C,C3*
X186150000Y-74100000D03*
X187700000Y-74100000D03*
G04 #@! TD*
D17*
G04 #@! TO.C,C10*
X145250000Y-103200000D03*
X148200000Y-103200000D03*
G04 #@! TD*
D13*
G04 #@! TO.C,R4*
X186100000Y-79120000D03*
X187750000Y-79120000D03*
G04 #@! TD*
D17*
G04 #@! TO.C,C4*
X186270000Y-87600000D03*
X189220000Y-87600000D03*
G04 #@! TD*
D20*
G04 #@! TO.C,C1*
X185922500Y-48630000D03*
X187472500Y-48630000D03*
G04 #@! TD*
D13*
G04 #@! TO.C,R1*
X185872500Y-51140000D03*
X187522500Y-51140000D03*
G04 #@! TD*
D20*
G04 #@! TO.C,C5*
X187050000Y-95200000D03*
X188600000Y-95200000D03*
G04 #@! TD*
D10*
G04 #@! TO.C,U1*
X187187500Y-56930000D03*
X187187500Y-58430000D03*
X188487500Y-56930000D03*
X188487500Y-58430000D03*
D11*
X185900000Y-56480000D03*
X185900000Y-57280000D03*
X185900000Y-58080000D03*
X185900000Y-58880000D03*
X189775000Y-58880000D03*
X189775000Y-58080000D03*
X189775000Y-57280000D03*
X189775000Y-56480000D03*
G04 #@! TD*
D13*
G04 #@! TO.C,R3*
X186100000Y-76610000D03*
X187750000Y-76610000D03*
G04 #@! TD*
D10*
G04 #@! TO.C,U3*
X188315000Y-103500000D03*
X188315000Y-105000000D03*
X189615000Y-103500000D03*
X189615000Y-105000000D03*
D11*
X187027500Y-103050000D03*
X187027500Y-103850000D03*
X187027500Y-104650000D03*
X187027500Y-105450000D03*
X190902500Y-105450000D03*
X190902500Y-104650000D03*
X190902500Y-103850000D03*
X190902500Y-103050000D03*
G04 #@! TD*
D13*
G04 #@! TO.C,R6*
X187000000Y-100220000D03*
X188650000Y-100220000D03*
G04 #@! TD*
D14*
G04 #@! TO.C,Q5*
X181514999Y-96449999D03*
X181514999Y-98149999D03*
X183214999Y-96449999D03*
X183214999Y-98149999D03*
D15*
X184619999Y-95394999D03*
X184619999Y-96664999D03*
X184619999Y-97934999D03*
X184619999Y-99204999D03*
D16*
X178814999Y-95394999D03*
X178814999Y-96664999D03*
X178814999Y-97934999D03*
X178814999Y-99204999D03*
G04 #@! TD*
D14*
G04 #@! TO.C,Q3*
X180614999Y-75349999D03*
X180614999Y-77049999D03*
X182314999Y-75349999D03*
X182314999Y-77049999D03*
D15*
X183719999Y-74294999D03*
X183719999Y-75564999D03*
X183719999Y-76834999D03*
X183719999Y-78104999D03*
D16*
X177914999Y-74294999D03*
X177914999Y-75564999D03*
X177914999Y-76834999D03*
X177914999Y-78104999D03*
G04 #@! TD*
D12*
G04 #@! TO.C,R8*
X187202500Y-109470000D03*
X193127500Y-109470000D03*
G04 #@! TD*
M02*
