G04 #@! TF.GenerationSoftware,KiCad,Pcbnew,(7.0.0)*
G04 #@! TF.CreationDate,2023-03-09T15:00:38+01:00*
G04 #@! TF.ProjectId,asmTest,61736d54-6573-4742-9e6b-696361645f70,rev?*
G04 #@! TF.SameCoordinates,Original*
G04 #@! TF.FileFunction,Copper,L2,Bot*
G04 #@! TF.FilePolarity,Positive*
%FSLAX46Y46*%
G04 Gerber Fmt 4.6, Leading zero omitted, Abs format (unit mm)*
G04 Created by KiCad (PCBNEW (7.0.0)) date 2023-03-09 15:00:38*
%MOMM*%
%LPD*%
G01*
G04 APERTURE LIST*
G04 #@! TA.AperFunction,ComponentPad*
%ADD10R,1.600000X1.600000*%
G04 #@! TD*
G04 #@! TA.AperFunction,ComponentPad*
%ADD11O,1.600000X1.600000*%
G04 #@! TD*
G04 #@! TA.AperFunction,ComponentPad*
%ADD12R,1.700000X1.700000*%
G04 #@! TD*
G04 #@! TA.AperFunction,ComponentPad*
%ADD13O,1.700000X1.700000*%
G04 #@! TD*
G04 #@! TA.AperFunction,ComponentPad*
%ADD14R,2.000000X2.000000*%
G04 #@! TD*
G04 #@! TA.AperFunction,ComponentPad*
%ADD15C,2.000000*%
G04 #@! TD*
G04 APERTURE END LIST*
D10*
G04 #@! TO.P,U6,1,~{RESET}/PC6*
G04 #@! TO.N,unconnected-(U6-~{RESET}{slash}PC6-Pad1)*
X146379999Y-52879999D03*
D11*
G04 #@! TO.P,U6,2,PD0*
G04 #@! TO.N,/can_rx*
X146379999Y-55419999D03*
G04 #@! TO.P,U6,3,PD1*
G04 #@! TO.N,/can_tx*
X146379999Y-57959999D03*
G04 #@! TO.P,U6,4,PD2*
G04 #@! TO.N,/uart_rx*
X146379999Y-60499999D03*
G04 #@! TO.P,U6,5,PD3*
G04 #@! TO.N,/uart_tx*
X146379999Y-63039999D03*
G04 #@! TO.P,U6,6,PD4*
G04 #@! TO.N,unconnected-(U6-PD4-Pad6)*
X146379999Y-65579999D03*
G04 #@! TO.P,U6,7,VCC*
G04 #@! TO.N,+5V*
X146379999Y-68119999D03*
G04 #@! TO.P,U6,8,GND*
G04 #@! TO.N,GND*
X146379999Y-70659999D03*
G04 #@! TO.P,U6,9,XTAL1/PB6*
G04 #@! TO.N,unconnected-(U6-XTAL1{slash}PB6-Pad9)*
X146379999Y-73199999D03*
G04 #@! TO.P,U6,10,XTAL2/PB7*
G04 #@! TO.N,unconnected-(U6-XTAL2{slash}PB7-Pad10)*
X146379999Y-75739999D03*
G04 #@! TO.P,U6,11,PD5*
G04 #@! TO.N,unconnected-(U6-PD5-Pad11)*
X146379999Y-78279999D03*
G04 #@! TO.P,U6,12,PD6*
G04 #@! TO.N,unconnected-(U6-PD6-Pad12)*
X146379999Y-80819999D03*
G04 #@! TO.P,U6,13,PD7*
G04 #@! TO.N,unconnected-(U6-PD7-Pad13)*
X146379999Y-83359999D03*
G04 #@! TO.P,U6,14,PB0*
G04 #@! TO.N,unconnected-(U6-PB0-Pad14)*
X146379999Y-85899999D03*
G04 #@! TO.P,U6,15,PB1*
G04 #@! TO.N,unconnected-(U6-PB1-Pad15)*
X153999999Y-85899999D03*
G04 #@! TO.P,U6,16,PB2*
G04 #@! TO.N,unconnected-(U6-PB2-Pad16)*
X153999999Y-83359999D03*
G04 #@! TO.P,U6,17,PB3*
G04 #@! TO.N,unconnected-(U6-PB3-Pad17)*
X153999999Y-80819999D03*
G04 #@! TO.P,U6,18,PB4*
G04 #@! TO.N,unconnected-(U6-PB4-Pad18)*
X153999999Y-78279999D03*
G04 #@! TO.P,U6,19,PB5*
G04 #@! TO.N,unconnected-(U6-PB5-Pad19)*
X153999999Y-75739999D03*
G04 #@! TO.P,U6,20,AVCC*
G04 #@! TO.N,+5V*
X153999999Y-73199999D03*
G04 #@! TO.P,U6,21,AREF*
G04 #@! TO.N,unconnected-(U6-AREF-Pad21)*
X153999999Y-70659999D03*
G04 #@! TO.P,U6,22,GND*
G04 #@! TO.N,GND*
X153999999Y-68119999D03*
G04 #@! TO.P,U6,23,PC0*
G04 #@! TO.N,/hi_A*
X153999999Y-65579999D03*
G04 #@! TO.P,U6,24,PC1*
G04 #@! TO.N,/li_A*
X153999999Y-63039999D03*
G04 #@! TO.P,U6,25,PC2*
G04 #@! TO.N,/hi_B*
X153999999Y-60499999D03*
G04 #@! TO.P,U6,26,PC3*
G04 #@! TO.N,/li_B*
X153999999Y-57959999D03*
G04 #@! TO.P,U6,27,PC4*
G04 #@! TO.N,/hi_C*
X153999999Y-55419999D03*
G04 #@! TO.P,U6,28,PC5*
G04 #@! TO.N,/li_C*
X153999999Y-52879999D03*
G04 #@! TD*
D12*
G04 #@! TO.P,J1,1,Pin_1*
G04 #@! TO.N,+10V*
X127999999Y-81019999D03*
D13*
G04 #@! TO.P,J1,2,Pin_2*
G04 #@! TO.N,+5V*
X127999999Y-83559999D03*
G04 #@! TO.P,J1,3,Pin_3*
G04 #@! TO.N,/canh*
X127999999Y-86099999D03*
G04 #@! TO.P,J1,4,Pin_4*
G04 #@! TO.N,/canl*
X127999999Y-88639999D03*
G04 #@! TO.P,J1,5,Pin_5*
G04 #@! TO.N,/rx*
X127999999Y-91179999D03*
G04 #@! TO.P,J1,6,Pin_6*
G04 #@! TO.N,/tx*
X127999999Y-93719999D03*
G04 #@! TO.P,J1,7,Pin_7*
G04 #@! TO.N,unconnected-(J1-Pin_7-Pad7)*
X127999999Y-96259999D03*
G04 #@! TO.P,J1,8,Pin_8*
G04 #@! TO.N,GND*
X127999999Y-98799999D03*
G04 #@! TD*
D12*
G04 #@! TO.P,J5,1,Pin_1*
G04 #@! TO.N,/phase_A*
X211739999Y-70999999D03*
D13*
G04 #@! TO.P,J5,2,Pin_2*
G04 #@! TO.N,/phase_B*
X211739999Y-73539999D03*
G04 #@! TO.P,J5,3,Pin_3*
G04 #@! TO.N,/phase_C*
X211739999Y-76079999D03*
G04 #@! TD*
D14*
G04 #@! TO.P,C7,1*
G04 #@! TO.N,+BATT*
X204204645Y-84149999D03*
D15*
G04 #@! TO.P,C7,2*
G04 #@! TO.N,GND*
X209204646Y-84150000D03*
G04 #@! TD*
D12*
G04 #@! TO.P,J4,1,Pin_1*
G04 #@! TO.N,+BATT*
X214799999Y-80699999D03*
D13*
G04 #@! TO.P,J4,2,Pin_2*
G04 #@! TO.N,GND*
X214799999Y-83239999D03*
G04 #@! TD*
M02*
