G04 #@! TF.GenerationSoftware,KiCad,Pcbnew,(7.0.0)*
G04 #@! TF.CreationDate,2023-03-09T15:00:38+01:00*
G04 #@! TF.ProjectId,asmTest,61736d54-6573-4742-9e6b-696361645f70,rev?*
G04 #@! TF.SameCoordinates,Original*
G04 #@! TF.FileFunction,Legend,Top*
G04 #@! TF.FilePolarity,Positive*
%FSLAX46Y46*%
G04 Gerber Fmt 4.6, Leading zero omitted, Abs format (unit mm)*
G04 Created by KiCad (PCBNEW (7.0.0)) date 2023-03-09 15:00:38*
%MOMM*%
%LPD*%
G01*
G04 APERTURE LIST*
%ADD10C,0.150000*%
%ADD11C,0.120000*%
G04 APERTURE END LIST*
D10*
G04 #@! TO.C,U2*
X187303095Y-79567380D02*
X187303095Y-80376904D01*
X187303095Y-80376904D02*
X187350714Y-80472142D01*
X187350714Y-80472142D02*
X187398333Y-80519761D01*
X187398333Y-80519761D02*
X187493571Y-80567380D01*
X187493571Y-80567380D02*
X187684047Y-80567380D01*
X187684047Y-80567380D02*
X187779285Y-80519761D01*
X187779285Y-80519761D02*
X187826904Y-80472142D01*
X187826904Y-80472142D02*
X187874523Y-80376904D01*
X187874523Y-80376904D02*
X187874523Y-79567380D01*
X188303095Y-79662619D02*
X188350714Y-79615000D01*
X188350714Y-79615000D02*
X188445952Y-79567380D01*
X188445952Y-79567380D02*
X188684047Y-79567380D01*
X188684047Y-79567380D02*
X188779285Y-79615000D01*
X188779285Y-79615000D02*
X188826904Y-79662619D01*
X188826904Y-79662619D02*
X188874523Y-79757857D01*
X188874523Y-79757857D02*
X188874523Y-79853095D01*
X188874523Y-79853095D02*
X188826904Y-79995952D01*
X188826904Y-79995952D02*
X188255476Y-80567380D01*
X188255476Y-80567380D02*
X188874523Y-80567380D01*
G04 #@! TO.C,R7*
X188870833Y-60647380D02*
X188537500Y-60171190D01*
X188299405Y-60647380D02*
X188299405Y-59647380D01*
X188299405Y-59647380D02*
X188680357Y-59647380D01*
X188680357Y-59647380D02*
X188775595Y-59695000D01*
X188775595Y-59695000D02*
X188823214Y-59742619D01*
X188823214Y-59742619D02*
X188870833Y-59837857D01*
X188870833Y-59837857D02*
X188870833Y-59980714D01*
X188870833Y-59980714D02*
X188823214Y-60075952D01*
X188823214Y-60075952D02*
X188775595Y-60123571D01*
X188775595Y-60123571D02*
X188680357Y-60171190D01*
X188680357Y-60171190D02*
X188299405Y-60171190D01*
X189204167Y-59647380D02*
X189870833Y-59647380D01*
X189870833Y-59647380D02*
X189442262Y-60647380D01*
G04 #@! TO.C,U6*
X149428095Y-49917380D02*
X149428095Y-50726904D01*
X149428095Y-50726904D02*
X149475714Y-50822142D01*
X149475714Y-50822142D02*
X149523333Y-50869761D01*
X149523333Y-50869761D02*
X149618571Y-50917380D01*
X149618571Y-50917380D02*
X149809047Y-50917380D01*
X149809047Y-50917380D02*
X149904285Y-50869761D01*
X149904285Y-50869761D02*
X149951904Y-50822142D01*
X149951904Y-50822142D02*
X149999523Y-50726904D01*
X149999523Y-50726904D02*
X149999523Y-49917380D01*
X150904285Y-49917380D02*
X150713809Y-49917380D01*
X150713809Y-49917380D02*
X150618571Y-49965000D01*
X150618571Y-49965000D02*
X150570952Y-50012619D01*
X150570952Y-50012619D02*
X150475714Y-50155476D01*
X150475714Y-50155476D02*
X150428095Y-50345952D01*
X150428095Y-50345952D02*
X150428095Y-50726904D01*
X150428095Y-50726904D02*
X150475714Y-50822142D01*
X150475714Y-50822142D02*
X150523333Y-50869761D01*
X150523333Y-50869761D02*
X150618571Y-50917380D01*
X150618571Y-50917380D02*
X150809047Y-50917380D01*
X150809047Y-50917380D02*
X150904285Y-50869761D01*
X150904285Y-50869761D02*
X150951904Y-50822142D01*
X150951904Y-50822142D02*
X150999523Y-50726904D01*
X150999523Y-50726904D02*
X150999523Y-50488809D01*
X150999523Y-50488809D02*
X150951904Y-50393571D01*
X150951904Y-50393571D02*
X150904285Y-50345952D01*
X150904285Y-50345952D02*
X150809047Y-50298333D01*
X150809047Y-50298333D02*
X150618571Y-50298333D01*
X150618571Y-50298333D02*
X150523333Y-50345952D01*
X150523333Y-50345952D02*
X150475714Y-50393571D01*
X150475714Y-50393571D02*
X150428095Y-50488809D01*
G04 #@! TO.C,R5*
X187658333Y-96647380D02*
X187325000Y-96171190D01*
X187086905Y-96647380D02*
X187086905Y-95647380D01*
X187086905Y-95647380D02*
X187467857Y-95647380D01*
X187467857Y-95647380D02*
X187563095Y-95695000D01*
X187563095Y-95695000D02*
X187610714Y-95742619D01*
X187610714Y-95742619D02*
X187658333Y-95837857D01*
X187658333Y-95837857D02*
X187658333Y-95980714D01*
X187658333Y-95980714D02*
X187610714Y-96075952D01*
X187610714Y-96075952D02*
X187563095Y-96123571D01*
X187563095Y-96123571D02*
X187467857Y-96171190D01*
X187467857Y-96171190D02*
X187086905Y-96171190D01*
X188563095Y-95647380D02*
X188086905Y-95647380D01*
X188086905Y-95647380D02*
X188039286Y-96123571D01*
X188039286Y-96123571D02*
X188086905Y-96075952D01*
X188086905Y-96075952D02*
X188182143Y-96028333D01*
X188182143Y-96028333D02*
X188420238Y-96028333D01*
X188420238Y-96028333D02*
X188515476Y-96075952D01*
X188515476Y-96075952D02*
X188563095Y-96123571D01*
X188563095Y-96123571D02*
X188610714Y-96218809D01*
X188610714Y-96218809D02*
X188610714Y-96456904D01*
X188610714Y-96456904D02*
X188563095Y-96552142D01*
X188563095Y-96552142D02*
X188515476Y-96599761D01*
X188515476Y-96599761D02*
X188420238Y-96647380D01*
X188420238Y-96647380D02*
X188182143Y-96647380D01*
X188182143Y-96647380D02*
X188086905Y-96599761D01*
X188086905Y-96599761D02*
X188039286Y-96552142D01*
G04 #@! TO.C,J1*
X127666666Y-77617380D02*
X127666666Y-78331666D01*
X127666666Y-78331666D02*
X127619047Y-78474523D01*
X127619047Y-78474523D02*
X127523809Y-78569761D01*
X127523809Y-78569761D02*
X127380952Y-78617380D01*
X127380952Y-78617380D02*
X127285714Y-78617380D01*
X128666666Y-78617380D02*
X128095238Y-78617380D01*
X128380952Y-78617380D02*
X128380952Y-77617380D01*
X128380952Y-77617380D02*
X128285714Y-77760238D01*
X128285714Y-77760238D02*
X128190476Y-77855476D01*
X128190476Y-77855476D02*
X128095238Y-77903095D01*
G04 #@! TO.C,Q2*
X180492261Y-54402619D02*
X180397023Y-54355000D01*
X180397023Y-54355000D02*
X180301785Y-54259761D01*
X180301785Y-54259761D02*
X180158928Y-54116904D01*
X180158928Y-54116904D02*
X180063690Y-54069285D01*
X180063690Y-54069285D02*
X179968452Y-54069285D01*
X180016071Y-54307380D02*
X179920833Y-54259761D01*
X179920833Y-54259761D02*
X179825595Y-54164523D01*
X179825595Y-54164523D02*
X179777976Y-53974047D01*
X179777976Y-53974047D02*
X179777976Y-53640714D01*
X179777976Y-53640714D02*
X179825595Y-53450238D01*
X179825595Y-53450238D02*
X179920833Y-53355000D01*
X179920833Y-53355000D02*
X180016071Y-53307380D01*
X180016071Y-53307380D02*
X180206547Y-53307380D01*
X180206547Y-53307380D02*
X180301785Y-53355000D01*
X180301785Y-53355000D02*
X180397023Y-53450238D01*
X180397023Y-53450238D02*
X180444642Y-53640714D01*
X180444642Y-53640714D02*
X180444642Y-53974047D01*
X180444642Y-53974047D02*
X180397023Y-54164523D01*
X180397023Y-54164523D02*
X180301785Y-54259761D01*
X180301785Y-54259761D02*
X180206547Y-54307380D01*
X180206547Y-54307380D02*
X180016071Y-54307380D01*
X180825595Y-53402619D02*
X180873214Y-53355000D01*
X180873214Y-53355000D02*
X180968452Y-53307380D01*
X180968452Y-53307380D02*
X181206547Y-53307380D01*
X181206547Y-53307380D02*
X181301785Y-53355000D01*
X181301785Y-53355000D02*
X181349404Y-53402619D01*
X181349404Y-53402619D02*
X181397023Y-53497857D01*
X181397023Y-53497857D02*
X181397023Y-53593095D01*
X181397023Y-53593095D02*
X181349404Y-53735952D01*
X181349404Y-53735952D02*
X180777976Y-54307380D01*
X180777976Y-54307380D02*
X181397023Y-54307380D01*
G04 #@! TO.C,C2*
X179140833Y-60892142D02*
X179093214Y-60939761D01*
X179093214Y-60939761D02*
X178950357Y-60987380D01*
X178950357Y-60987380D02*
X178855119Y-60987380D01*
X178855119Y-60987380D02*
X178712262Y-60939761D01*
X178712262Y-60939761D02*
X178617024Y-60844523D01*
X178617024Y-60844523D02*
X178569405Y-60749285D01*
X178569405Y-60749285D02*
X178521786Y-60558809D01*
X178521786Y-60558809D02*
X178521786Y-60415952D01*
X178521786Y-60415952D02*
X178569405Y-60225476D01*
X178569405Y-60225476D02*
X178617024Y-60130238D01*
X178617024Y-60130238D02*
X178712262Y-60035000D01*
X178712262Y-60035000D02*
X178855119Y-59987380D01*
X178855119Y-59987380D02*
X178950357Y-59987380D01*
X178950357Y-59987380D02*
X179093214Y-60035000D01*
X179093214Y-60035000D02*
X179140833Y-60082619D01*
X179521786Y-60082619D02*
X179569405Y-60035000D01*
X179569405Y-60035000D02*
X179664643Y-59987380D01*
X179664643Y-59987380D02*
X179902738Y-59987380D01*
X179902738Y-59987380D02*
X179997976Y-60035000D01*
X179997976Y-60035000D02*
X180045595Y-60082619D01*
X180045595Y-60082619D02*
X180093214Y-60177857D01*
X180093214Y-60177857D02*
X180093214Y-60273095D01*
X180093214Y-60273095D02*
X180045595Y-60415952D01*
X180045595Y-60415952D02*
X179474167Y-60987380D01*
X179474167Y-60987380D02*
X180093214Y-60987380D01*
G04 #@! TO.C,FID2*
X93328571Y-49803571D02*
X92995238Y-49803571D01*
X92995238Y-50327380D02*
X92995238Y-49327380D01*
X92995238Y-49327380D02*
X93471428Y-49327380D01*
X93852381Y-50327380D02*
X93852381Y-49327380D01*
X94328571Y-50327380D02*
X94328571Y-49327380D01*
X94328571Y-49327380D02*
X94566666Y-49327380D01*
X94566666Y-49327380D02*
X94709523Y-49375000D01*
X94709523Y-49375000D02*
X94804761Y-49470238D01*
X94804761Y-49470238D02*
X94852380Y-49565476D01*
X94852380Y-49565476D02*
X94899999Y-49755952D01*
X94899999Y-49755952D02*
X94899999Y-49898809D01*
X94899999Y-49898809D02*
X94852380Y-50089285D01*
X94852380Y-50089285D02*
X94804761Y-50184523D01*
X94804761Y-50184523D02*
X94709523Y-50279761D01*
X94709523Y-50279761D02*
X94566666Y-50327380D01*
X94566666Y-50327380D02*
X94328571Y-50327380D01*
X95280952Y-49422619D02*
X95328571Y-49375000D01*
X95328571Y-49375000D02*
X95423809Y-49327380D01*
X95423809Y-49327380D02*
X95661904Y-49327380D01*
X95661904Y-49327380D02*
X95757142Y-49375000D01*
X95757142Y-49375000D02*
X95804761Y-49422619D01*
X95804761Y-49422619D02*
X95852380Y-49517857D01*
X95852380Y-49517857D02*
X95852380Y-49613095D01*
X95852380Y-49613095D02*
X95804761Y-49755952D01*
X95804761Y-49755952D02*
X95233333Y-50327380D01*
X95233333Y-50327380D02*
X95852380Y-50327380D01*
G04 #@! TO.C,Q4*
X180719761Y-79872619D02*
X180624523Y-79825000D01*
X180624523Y-79825000D02*
X180529285Y-79729761D01*
X180529285Y-79729761D02*
X180386428Y-79586904D01*
X180386428Y-79586904D02*
X180291190Y-79539285D01*
X180291190Y-79539285D02*
X180195952Y-79539285D01*
X180243571Y-79777380D02*
X180148333Y-79729761D01*
X180148333Y-79729761D02*
X180053095Y-79634523D01*
X180053095Y-79634523D02*
X180005476Y-79444047D01*
X180005476Y-79444047D02*
X180005476Y-79110714D01*
X180005476Y-79110714D02*
X180053095Y-78920238D01*
X180053095Y-78920238D02*
X180148333Y-78825000D01*
X180148333Y-78825000D02*
X180243571Y-78777380D01*
X180243571Y-78777380D02*
X180434047Y-78777380D01*
X180434047Y-78777380D02*
X180529285Y-78825000D01*
X180529285Y-78825000D02*
X180624523Y-78920238D01*
X180624523Y-78920238D02*
X180672142Y-79110714D01*
X180672142Y-79110714D02*
X180672142Y-79444047D01*
X180672142Y-79444047D02*
X180624523Y-79634523D01*
X180624523Y-79634523D02*
X180529285Y-79729761D01*
X180529285Y-79729761D02*
X180434047Y-79777380D01*
X180434047Y-79777380D02*
X180243571Y-79777380D01*
X181529285Y-79110714D02*
X181529285Y-79777380D01*
X181291190Y-78729761D02*
X181053095Y-79444047D01*
X181053095Y-79444047D02*
X181672142Y-79444047D01*
G04 #@! TO.C,Q6*
X181619761Y-100972619D02*
X181524523Y-100925000D01*
X181524523Y-100925000D02*
X181429285Y-100829761D01*
X181429285Y-100829761D02*
X181286428Y-100686904D01*
X181286428Y-100686904D02*
X181191190Y-100639285D01*
X181191190Y-100639285D02*
X181095952Y-100639285D01*
X181143571Y-100877380D02*
X181048333Y-100829761D01*
X181048333Y-100829761D02*
X180953095Y-100734523D01*
X180953095Y-100734523D02*
X180905476Y-100544047D01*
X180905476Y-100544047D02*
X180905476Y-100210714D01*
X180905476Y-100210714D02*
X180953095Y-100020238D01*
X180953095Y-100020238D02*
X181048333Y-99925000D01*
X181048333Y-99925000D02*
X181143571Y-99877380D01*
X181143571Y-99877380D02*
X181334047Y-99877380D01*
X181334047Y-99877380D02*
X181429285Y-99925000D01*
X181429285Y-99925000D02*
X181524523Y-100020238D01*
X181524523Y-100020238D02*
X181572142Y-100210714D01*
X181572142Y-100210714D02*
X181572142Y-100544047D01*
X181572142Y-100544047D02*
X181524523Y-100734523D01*
X181524523Y-100734523D02*
X181429285Y-100829761D01*
X181429285Y-100829761D02*
X181334047Y-100877380D01*
X181334047Y-100877380D02*
X181143571Y-100877380D01*
X182429285Y-99877380D02*
X182238809Y-99877380D01*
X182238809Y-99877380D02*
X182143571Y-99925000D01*
X182143571Y-99925000D02*
X182095952Y-99972619D01*
X182095952Y-99972619D02*
X182000714Y-100115476D01*
X182000714Y-100115476D02*
X181953095Y-100305952D01*
X181953095Y-100305952D02*
X181953095Y-100686904D01*
X181953095Y-100686904D02*
X182000714Y-100782142D01*
X182000714Y-100782142D02*
X182048333Y-100829761D01*
X182048333Y-100829761D02*
X182143571Y-100877380D01*
X182143571Y-100877380D02*
X182334047Y-100877380D01*
X182334047Y-100877380D02*
X182429285Y-100829761D01*
X182429285Y-100829761D02*
X182476904Y-100782142D01*
X182476904Y-100782142D02*
X182524523Y-100686904D01*
X182524523Y-100686904D02*
X182524523Y-100448809D01*
X182524523Y-100448809D02*
X182476904Y-100353571D01*
X182476904Y-100353571D02*
X182429285Y-100305952D01*
X182429285Y-100305952D02*
X182334047Y-100258333D01*
X182334047Y-100258333D02*
X182143571Y-100258333D01*
X182143571Y-100258333D02*
X182048333Y-100305952D01*
X182048333Y-100305952D02*
X182000714Y-100353571D01*
X182000714Y-100353571D02*
X181953095Y-100448809D01*
G04 #@! TO.C,R2*
X186530833Y-52587380D02*
X186197500Y-52111190D01*
X185959405Y-52587380D02*
X185959405Y-51587380D01*
X185959405Y-51587380D02*
X186340357Y-51587380D01*
X186340357Y-51587380D02*
X186435595Y-51635000D01*
X186435595Y-51635000D02*
X186483214Y-51682619D01*
X186483214Y-51682619D02*
X186530833Y-51777857D01*
X186530833Y-51777857D02*
X186530833Y-51920714D01*
X186530833Y-51920714D02*
X186483214Y-52015952D01*
X186483214Y-52015952D02*
X186435595Y-52063571D01*
X186435595Y-52063571D02*
X186340357Y-52111190D01*
X186340357Y-52111190D02*
X185959405Y-52111190D01*
X186911786Y-51682619D02*
X186959405Y-51635000D01*
X186959405Y-51635000D02*
X187054643Y-51587380D01*
X187054643Y-51587380D02*
X187292738Y-51587380D01*
X187292738Y-51587380D02*
X187387976Y-51635000D01*
X187387976Y-51635000D02*
X187435595Y-51682619D01*
X187435595Y-51682619D02*
X187483214Y-51777857D01*
X187483214Y-51777857D02*
X187483214Y-51873095D01*
X187483214Y-51873095D02*
X187435595Y-52015952D01*
X187435595Y-52015952D02*
X186864167Y-52587380D01*
X186864167Y-52587380D02*
X187483214Y-52587380D01*
G04 #@! TO.C,C6*
X180268333Y-107462142D02*
X180220714Y-107509761D01*
X180220714Y-107509761D02*
X180077857Y-107557380D01*
X180077857Y-107557380D02*
X179982619Y-107557380D01*
X179982619Y-107557380D02*
X179839762Y-107509761D01*
X179839762Y-107509761D02*
X179744524Y-107414523D01*
X179744524Y-107414523D02*
X179696905Y-107319285D01*
X179696905Y-107319285D02*
X179649286Y-107128809D01*
X179649286Y-107128809D02*
X179649286Y-106985952D01*
X179649286Y-106985952D02*
X179696905Y-106795476D01*
X179696905Y-106795476D02*
X179744524Y-106700238D01*
X179744524Y-106700238D02*
X179839762Y-106605000D01*
X179839762Y-106605000D02*
X179982619Y-106557380D01*
X179982619Y-106557380D02*
X180077857Y-106557380D01*
X180077857Y-106557380D02*
X180220714Y-106605000D01*
X180220714Y-106605000D02*
X180268333Y-106652619D01*
X181125476Y-106557380D02*
X180935000Y-106557380D01*
X180935000Y-106557380D02*
X180839762Y-106605000D01*
X180839762Y-106605000D02*
X180792143Y-106652619D01*
X180792143Y-106652619D02*
X180696905Y-106795476D01*
X180696905Y-106795476D02*
X180649286Y-106985952D01*
X180649286Y-106985952D02*
X180649286Y-107366904D01*
X180649286Y-107366904D02*
X180696905Y-107462142D01*
X180696905Y-107462142D02*
X180744524Y-107509761D01*
X180744524Y-107509761D02*
X180839762Y-107557380D01*
X180839762Y-107557380D02*
X181030238Y-107557380D01*
X181030238Y-107557380D02*
X181125476Y-107509761D01*
X181125476Y-107509761D02*
X181173095Y-107462142D01*
X181173095Y-107462142D02*
X181220714Y-107366904D01*
X181220714Y-107366904D02*
X181220714Y-107128809D01*
X181220714Y-107128809D02*
X181173095Y-107033571D01*
X181173095Y-107033571D02*
X181125476Y-106985952D01*
X181125476Y-106985952D02*
X181030238Y-106938333D01*
X181030238Y-106938333D02*
X180839762Y-106938333D01*
X180839762Y-106938333D02*
X180744524Y-106985952D01*
X180744524Y-106985952D02*
X180696905Y-107033571D01*
X180696905Y-107033571D02*
X180649286Y-107128809D01*
G04 #@! TO.C,J5*
X207026666Y-67597380D02*
X207026666Y-68311666D01*
X207026666Y-68311666D02*
X206979047Y-68454523D01*
X206979047Y-68454523D02*
X206883809Y-68549761D01*
X206883809Y-68549761D02*
X206740952Y-68597380D01*
X206740952Y-68597380D02*
X206645714Y-68597380D01*
X207979047Y-67597380D02*
X207502857Y-67597380D01*
X207502857Y-67597380D02*
X207455238Y-68073571D01*
X207455238Y-68073571D02*
X207502857Y-68025952D01*
X207502857Y-68025952D02*
X207598095Y-67978333D01*
X207598095Y-67978333D02*
X207836190Y-67978333D01*
X207836190Y-67978333D02*
X207931428Y-68025952D01*
X207931428Y-68025952D02*
X207979047Y-68073571D01*
X207979047Y-68073571D02*
X208026666Y-68168809D01*
X208026666Y-68168809D02*
X208026666Y-68406904D01*
X208026666Y-68406904D02*
X207979047Y-68502142D01*
X207979047Y-68502142D02*
X207931428Y-68549761D01*
X207931428Y-68549761D02*
X207836190Y-68597380D01*
X207836190Y-68597380D02*
X207598095Y-68597380D01*
X207598095Y-68597380D02*
X207502857Y-68549761D01*
X207502857Y-68549761D02*
X207455238Y-68502142D01*
G04 #@! TO.C,U4*
X108713095Y-70772380D02*
X108713095Y-71581904D01*
X108713095Y-71581904D02*
X108760714Y-71677142D01*
X108760714Y-71677142D02*
X108808333Y-71724761D01*
X108808333Y-71724761D02*
X108903571Y-71772380D01*
X108903571Y-71772380D02*
X109094047Y-71772380D01*
X109094047Y-71772380D02*
X109189285Y-71724761D01*
X109189285Y-71724761D02*
X109236904Y-71677142D01*
X109236904Y-71677142D02*
X109284523Y-71581904D01*
X109284523Y-71581904D02*
X109284523Y-70772380D01*
X110189285Y-71105714D02*
X110189285Y-71772380D01*
X109951190Y-70724761D02*
X109713095Y-71439047D01*
X109713095Y-71439047D02*
X110332142Y-71439047D01*
G04 #@! TO.C,Q1*
X180492261Y-47692619D02*
X180397023Y-47645000D01*
X180397023Y-47645000D02*
X180301785Y-47549761D01*
X180301785Y-47549761D02*
X180158928Y-47406904D01*
X180158928Y-47406904D02*
X180063690Y-47359285D01*
X180063690Y-47359285D02*
X179968452Y-47359285D01*
X180016071Y-47597380D02*
X179920833Y-47549761D01*
X179920833Y-47549761D02*
X179825595Y-47454523D01*
X179825595Y-47454523D02*
X179777976Y-47264047D01*
X179777976Y-47264047D02*
X179777976Y-46930714D01*
X179777976Y-46930714D02*
X179825595Y-46740238D01*
X179825595Y-46740238D02*
X179920833Y-46645000D01*
X179920833Y-46645000D02*
X180016071Y-46597380D01*
X180016071Y-46597380D02*
X180206547Y-46597380D01*
X180206547Y-46597380D02*
X180301785Y-46645000D01*
X180301785Y-46645000D02*
X180397023Y-46740238D01*
X180397023Y-46740238D02*
X180444642Y-46930714D01*
X180444642Y-46930714D02*
X180444642Y-47264047D01*
X180444642Y-47264047D02*
X180397023Y-47454523D01*
X180397023Y-47454523D02*
X180301785Y-47549761D01*
X180301785Y-47549761D02*
X180206547Y-47597380D01*
X180206547Y-47597380D02*
X180016071Y-47597380D01*
X181397023Y-47597380D02*
X180825595Y-47597380D01*
X181111309Y-47597380D02*
X181111309Y-46597380D01*
X181111309Y-46597380D02*
X181016071Y-46740238D01*
X181016071Y-46740238D02*
X180920833Y-46835476D01*
X180920833Y-46835476D02*
X180825595Y-46883095D01*
G04 #@! TO.C,U5*
X159068095Y-49997380D02*
X159068095Y-50806904D01*
X159068095Y-50806904D02*
X159115714Y-50902142D01*
X159115714Y-50902142D02*
X159163333Y-50949761D01*
X159163333Y-50949761D02*
X159258571Y-50997380D01*
X159258571Y-50997380D02*
X159449047Y-50997380D01*
X159449047Y-50997380D02*
X159544285Y-50949761D01*
X159544285Y-50949761D02*
X159591904Y-50902142D01*
X159591904Y-50902142D02*
X159639523Y-50806904D01*
X159639523Y-50806904D02*
X159639523Y-49997380D01*
X160591904Y-49997380D02*
X160115714Y-49997380D01*
X160115714Y-49997380D02*
X160068095Y-50473571D01*
X160068095Y-50473571D02*
X160115714Y-50425952D01*
X160115714Y-50425952D02*
X160210952Y-50378333D01*
X160210952Y-50378333D02*
X160449047Y-50378333D01*
X160449047Y-50378333D02*
X160544285Y-50425952D01*
X160544285Y-50425952D02*
X160591904Y-50473571D01*
X160591904Y-50473571D02*
X160639523Y-50568809D01*
X160639523Y-50568809D02*
X160639523Y-50806904D01*
X160639523Y-50806904D02*
X160591904Y-50902142D01*
X160591904Y-50902142D02*
X160544285Y-50949761D01*
X160544285Y-50949761D02*
X160449047Y-50997380D01*
X160449047Y-50997380D02*
X160210952Y-50997380D01*
X160210952Y-50997380D02*
X160115714Y-50949761D01*
X160115714Y-50949761D02*
X160068095Y-50902142D01*
G04 #@! TO.C,C3*
X186758333Y-72942142D02*
X186710714Y-72989761D01*
X186710714Y-72989761D02*
X186567857Y-73037380D01*
X186567857Y-73037380D02*
X186472619Y-73037380D01*
X186472619Y-73037380D02*
X186329762Y-72989761D01*
X186329762Y-72989761D02*
X186234524Y-72894523D01*
X186234524Y-72894523D02*
X186186905Y-72799285D01*
X186186905Y-72799285D02*
X186139286Y-72608809D01*
X186139286Y-72608809D02*
X186139286Y-72465952D01*
X186139286Y-72465952D02*
X186186905Y-72275476D01*
X186186905Y-72275476D02*
X186234524Y-72180238D01*
X186234524Y-72180238D02*
X186329762Y-72085000D01*
X186329762Y-72085000D02*
X186472619Y-72037380D01*
X186472619Y-72037380D02*
X186567857Y-72037380D01*
X186567857Y-72037380D02*
X186710714Y-72085000D01*
X186710714Y-72085000D02*
X186758333Y-72132619D01*
X187091667Y-72037380D02*
X187710714Y-72037380D01*
X187710714Y-72037380D02*
X187377381Y-72418333D01*
X187377381Y-72418333D02*
X187520238Y-72418333D01*
X187520238Y-72418333D02*
X187615476Y-72465952D01*
X187615476Y-72465952D02*
X187663095Y-72513571D01*
X187663095Y-72513571D02*
X187710714Y-72608809D01*
X187710714Y-72608809D02*
X187710714Y-72846904D01*
X187710714Y-72846904D02*
X187663095Y-72942142D01*
X187663095Y-72942142D02*
X187615476Y-72989761D01*
X187615476Y-72989761D02*
X187520238Y-73037380D01*
X187520238Y-73037380D02*
X187234524Y-73037380D01*
X187234524Y-73037380D02*
X187139286Y-72989761D01*
X187139286Y-72989761D02*
X187091667Y-72942142D01*
G04 #@! TO.C,C10*
X146082142Y-101622142D02*
X146034523Y-101669761D01*
X146034523Y-101669761D02*
X145891666Y-101717380D01*
X145891666Y-101717380D02*
X145796428Y-101717380D01*
X145796428Y-101717380D02*
X145653571Y-101669761D01*
X145653571Y-101669761D02*
X145558333Y-101574523D01*
X145558333Y-101574523D02*
X145510714Y-101479285D01*
X145510714Y-101479285D02*
X145463095Y-101288809D01*
X145463095Y-101288809D02*
X145463095Y-101145952D01*
X145463095Y-101145952D02*
X145510714Y-100955476D01*
X145510714Y-100955476D02*
X145558333Y-100860238D01*
X145558333Y-100860238D02*
X145653571Y-100765000D01*
X145653571Y-100765000D02*
X145796428Y-100717380D01*
X145796428Y-100717380D02*
X145891666Y-100717380D01*
X145891666Y-100717380D02*
X146034523Y-100765000D01*
X146034523Y-100765000D02*
X146082142Y-100812619D01*
X147034523Y-101717380D02*
X146463095Y-101717380D01*
X146748809Y-101717380D02*
X146748809Y-100717380D01*
X146748809Y-100717380D02*
X146653571Y-100860238D01*
X146653571Y-100860238D02*
X146558333Y-100955476D01*
X146558333Y-100955476D02*
X146463095Y-101003095D01*
X147653571Y-100717380D02*
X147748809Y-100717380D01*
X147748809Y-100717380D02*
X147844047Y-100765000D01*
X147844047Y-100765000D02*
X147891666Y-100812619D01*
X147891666Y-100812619D02*
X147939285Y-100907857D01*
X147939285Y-100907857D02*
X147986904Y-101098333D01*
X147986904Y-101098333D02*
X147986904Y-101336428D01*
X147986904Y-101336428D02*
X147939285Y-101526904D01*
X147939285Y-101526904D02*
X147891666Y-101622142D01*
X147891666Y-101622142D02*
X147844047Y-101669761D01*
X147844047Y-101669761D02*
X147748809Y-101717380D01*
X147748809Y-101717380D02*
X147653571Y-101717380D01*
X147653571Y-101717380D02*
X147558333Y-101669761D01*
X147558333Y-101669761D02*
X147510714Y-101622142D01*
X147510714Y-101622142D02*
X147463095Y-101526904D01*
X147463095Y-101526904D02*
X147415476Y-101336428D01*
X147415476Y-101336428D02*
X147415476Y-101098333D01*
X147415476Y-101098333D02*
X147463095Y-100907857D01*
X147463095Y-100907857D02*
X147510714Y-100812619D01*
X147510714Y-100812619D02*
X147558333Y-100765000D01*
X147558333Y-100765000D02*
X147653571Y-100717380D01*
G04 #@! TO.C,R4*
X186758333Y-78057380D02*
X186425000Y-77581190D01*
X186186905Y-78057380D02*
X186186905Y-77057380D01*
X186186905Y-77057380D02*
X186567857Y-77057380D01*
X186567857Y-77057380D02*
X186663095Y-77105000D01*
X186663095Y-77105000D02*
X186710714Y-77152619D01*
X186710714Y-77152619D02*
X186758333Y-77247857D01*
X186758333Y-77247857D02*
X186758333Y-77390714D01*
X186758333Y-77390714D02*
X186710714Y-77485952D01*
X186710714Y-77485952D02*
X186663095Y-77533571D01*
X186663095Y-77533571D02*
X186567857Y-77581190D01*
X186567857Y-77581190D02*
X186186905Y-77581190D01*
X187615476Y-77390714D02*
X187615476Y-78057380D01*
X187377381Y-77009761D02*
X187139286Y-77724047D01*
X187139286Y-77724047D02*
X187758333Y-77724047D01*
G04 #@! TO.C,C4*
X187578333Y-86022142D02*
X187530714Y-86069761D01*
X187530714Y-86069761D02*
X187387857Y-86117380D01*
X187387857Y-86117380D02*
X187292619Y-86117380D01*
X187292619Y-86117380D02*
X187149762Y-86069761D01*
X187149762Y-86069761D02*
X187054524Y-85974523D01*
X187054524Y-85974523D02*
X187006905Y-85879285D01*
X187006905Y-85879285D02*
X186959286Y-85688809D01*
X186959286Y-85688809D02*
X186959286Y-85545952D01*
X186959286Y-85545952D02*
X187006905Y-85355476D01*
X187006905Y-85355476D02*
X187054524Y-85260238D01*
X187054524Y-85260238D02*
X187149762Y-85165000D01*
X187149762Y-85165000D02*
X187292619Y-85117380D01*
X187292619Y-85117380D02*
X187387857Y-85117380D01*
X187387857Y-85117380D02*
X187530714Y-85165000D01*
X187530714Y-85165000D02*
X187578333Y-85212619D01*
X188435476Y-85450714D02*
X188435476Y-86117380D01*
X188197381Y-85069761D02*
X187959286Y-85784047D01*
X187959286Y-85784047D02*
X188578333Y-85784047D01*
G04 #@! TO.C,FID1*
X208228571Y-107703571D02*
X207895238Y-107703571D01*
X207895238Y-108227380D02*
X207895238Y-107227380D01*
X207895238Y-107227380D02*
X208371428Y-107227380D01*
X208752381Y-108227380D02*
X208752381Y-107227380D01*
X209228571Y-108227380D02*
X209228571Y-107227380D01*
X209228571Y-107227380D02*
X209466666Y-107227380D01*
X209466666Y-107227380D02*
X209609523Y-107275000D01*
X209609523Y-107275000D02*
X209704761Y-107370238D01*
X209704761Y-107370238D02*
X209752380Y-107465476D01*
X209752380Y-107465476D02*
X209799999Y-107655952D01*
X209799999Y-107655952D02*
X209799999Y-107798809D01*
X209799999Y-107798809D02*
X209752380Y-107989285D01*
X209752380Y-107989285D02*
X209704761Y-108084523D01*
X209704761Y-108084523D02*
X209609523Y-108179761D01*
X209609523Y-108179761D02*
X209466666Y-108227380D01*
X209466666Y-108227380D02*
X209228571Y-108227380D01*
X210752380Y-108227380D02*
X210180952Y-108227380D01*
X210466666Y-108227380D02*
X210466666Y-107227380D01*
X210466666Y-107227380D02*
X210371428Y-107370238D01*
X210371428Y-107370238D02*
X210276190Y-107465476D01*
X210276190Y-107465476D02*
X210180952Y-107513095D01*
G04 #@! TO.C,C1*
X186530833Y-47472142D02*
X186483214Y-47519761D01*
X186483214Y-47519761D02*
X186340357Y-47567380D01*
X186340357Y-47567380D02*
X186245119Y-47567380D01*
X186245119Y-47567380D02*
X186102262Y-47519761D01*
X186102262Y-47519761D02*
X186007024Y-47424523D01*
X186007024Y-47424523D02*
X185959405Y-47329285D01*
X185959405Y-47329285D02*
X185911786Y-47138809D01*
X185911786Y-47138809D02*
X185911786Y-46995952D01*
X185911786Y-46995952D02*
X185959405Y-46805476D01*
X185959405Y-46805476D02*
X186007024Y-46710238D01*
X186007024Y-46710238D02*
X186102262Y-46615000D01*
X186102262Y-46615000D02*
X186245119Y-46567380D01*
X186245119Y-46567380D02*
X186340357Y-46567380D01*
X186340357Y-46567380D02*
X186483214Y-46615000D01*
X186483214Y-46615000D02*
X186530833Y-46662619D01*
X187483214Y-47567380D02*
X186911786Y-47567380D01*
X187197500Y-47567380D02*
X187197500Y-46567380D01*
X187197500Y-46567380D02*
X187102262Y-46710238D01*
X187102262Y-46710238D02*
X187007024Y-46805476D01*
X187007024Y-46805476D02*
X186911786Y-46853095D01*
G04 #@! TO.C,R1*
X186530833Y-50077380D02*
X186197500Y-49601190D01*
X185959405Y-50077380D02*
X185959405Y-49077380D01*
X185959405Y-49077380D02*
X186340357Y-49077380D01*
X186340357Y-49077380D02*
X186435595Y-49125000D01*
X186435595Y-49125000D02*
X186483214Y-49172619D01*
X186483214Y-49172619D02*
X186530833Y-49267857D01*
X186530833Y-49267857D02*
X186530833Y-49410714D01*
X186530833Y-49410714D02*
X186483214Y-49505952D01*
X186483214Y-49505952D02*
X186435595Y-49553571D01*
X186435595Y-49553571D02*
X186340357Y-49601190D01*
X186340357Y-49601190D02*
X185959405Y-49601190D01*
X187483214Y-50077380D02*
X186911786Y-50077380D01*
X187197500Y-50077380D02*
X187197500Y-49077380D01*
X187197500Y-49077380D02*
X187102262Y-49220238D01*
X187102262Y-49220238D02*
X187007024Y-49315476D01*
X187007024Y-49315476D02*
X186911786Y-49363095D01*
G04 #@! TO.C,C5*
X187658333Y-94042142D02*
X187610714Y-94089761D01*
X187610714Y-94089761D02*
X187467857Y-94137380D01*
X187467857Y-94137380D02*
X187372619Y-94137380D01*
X187372619Y-94137380D02*
X187229762Y-94089761D01*
X187229762Y-94089761D02*
X187134524Y-93994523D01*
X187134524Y-93994523D02*
X187086905Y-93899285D01*
X187086905Y-93899285D02*
X187039286Y-93708809D01*
X187039286Y-93708809D02*
X187039286Y-93565952D01*
X187039286Y-93565952D02*
X187086905Y-93375476D01*
X187086905Y-93375476D02*
X187134524Y-93280238D01*
X187134524Y-93280238D02*
X187229762Y-93185000D01*
X187229762Y-93185000D02*
X187372619Y-93137380D01*
X187372619Y-93137380D02*
X187467857Y-93137380D01*
X187467857Y-93137380D02*
X187610714Y-93185000D01*
X187610714Y-93185000D02*
X187658333Y-93232619D01*
X188563095Y-93137380D02*
X188086905Y-93137380D01*
X188086905Y-93137380D02*
X188039286Y-93613571D01*
X188039286Y-93613571D02*
X188086905Y-93565952D01*
X188086905Y-93565952D02*
X188182143Y-93518333D01*
X188182143Y-93518333D02*
X188420238Y-93518333D01*
X188420238Y-93518333D02*
X188515476Y-93565952D01*
X188515476Y-93565952D02*
X188563095Y-93613571D01*
X188563095Y-93613571D02*
X188610714Y-93708809D01*
X188610714Y-93708809D02*
X188610714Y-93946904D01*
X188610714Y-93946904D02*
X188563095Y-94042142D01*
X188563095Y-94042142D02*
X188515476Y-94089761D01*
X188515476Y-94089761D02*
X188420238Y-94137380D01*
X188420238Y-94137380D02*
X188182143Y-94137380D01*
X188182143Y-94137380D02*
X188086905Y-94089761D01*
X188086905Y-94089761D02*
X188039286Y-94042142D01*
G04 #@! TO.C,U1*
X187075595Y-54097380D02*
X187075595Y-54906904D01*
X187075595Y-54906904D02*
X187123214Y-55002142D01*
X187123214Y-55002142D02*
X187170833Y-55049761D01*
X187170833Y-55049761D02*
X187266071Y-55097380D01*
X187266071Y-55097380D02*
X187456547Y-55097380D01*
X187456547Y-55097380D02*
X187551785Y-55049761D01*
X187551785Y-55049761D02*
X187599404Y-55002142D01*
X187599404Y-55002142D02*
X187647023Y-54906904D01*
X187647023Y-54906904D02*
X187647023Y-54097380D01*
X188647023Y-55097380D02*
X188075595Y-55097380D01*
X188361309Y-55097380D02*
X188361309Y-54097380D01*
X188361309Y-54097380D02*
X188266071Y-54240238D01*
X188266071Y-54240238D02*
X188170833Y-54335476D01*
X188170833Y-54335476D02*
X188075595Y-54383095D01*
G04 #@! TO.C,R3*
X186758333Y-75547380D02*
X186425000Y-75071190D01*
X186186905Y-75547380D02*
X186186905Y-74547380D01*
X186186905Y-74547380D02*
X186567857Y-74547380D01*
X186567857Y-74547380D02*
X186663095Y-74595000D01*
X186663095Y-74595000D02*
X186710714Y-74642619D01*
X186710714Y-74642619D02*
X186758333Y-74737857D01*
X186758333Y-74737857D02*
X186758333Y-74880714D01*
X186758333Y-74880714D02*
X186710714Y-74975952D01*
X186710714Y-74975952D02*
X186663095Y-75023571D01*
X186663095Y-75023571D02*
X186567857Y-75071190D01*
X186567857Y-75071190D02*
X186186905Y-75071190D01*
X187091667Y-74547380D02*
X187710714Y-74547380D01*
X187710714Y-74547380D02*
X187377381Y-74928333D01*
X187377381Y-74928333D02*
X187520238Y-74928333D01*
X187520238Y-74928333D02*
X187615476Y-74975952D01*
X187615476Y-74975952D02*
X187663095Y-75023571D01*
X187663095Y-75023571D02*
X187710714Y-75118809D01*
X187710714Y-75118809D02*
X187710714Y-75356904D01*
X187710714Y-75356904D02*
X187663095Y-75452142D01*
X187663095Y-75452142D02*
X187615476Y-75499761D01*
X187615476Y-75499761D02*
X187520238Y-75547380D01*
X187520238Y-75547380D02*
X187234524Y-75547380D01*
X187234524Y-75547380D02*
X187139286Y-75499761D01*
X187139286Y-75499761D02*
X187091667Y-75452142D01*
G04 #@! TO.C,U3*
X188203095Y-100667380D02*
X188203095Y-101476904D01*
X188203095Y-101476904D02*
X188250714Y-101572142D01*
X188250714Y-101572142D02*
X188298333Y-101619761D01*
X188298333Y-101619761D02*
X188393571Y-101667380D01*
X188393571Y-101667380D02*
X188584047Y-101667380D01*
X188584047Y-101667380D02*
X188679285Y-101619761D01*
X188679285Y-101619761D02*
X188726904Y-101572142D01*
X188726904Y-101572142D02*
X188774523Y-101476904D01*
X188774523Y-101476904D02*
X188774523Y-100667380D01*
X189155476Y-100667380D02*
X189774523Y-100667380D01*
X189774523Y-100667380D02*
X189441190Y-101048333D01*
X189441190Y-101048333D02*
X189584047Y-101048333D01*
X189584047Y-101048333D02*
X189679285Y-101095952D01*
X189679285Y-101095952D02*
X189726904Y-101143571D01*
X189726904Y-101143571D02*
X189774523Y-101238809D01*
X189774523Y-101238809D02*
X189774523Y-101476904D01*
X189774523Y-101476904D02*
X189726904Y-101572142D01*
X189726904Y-101572142D02*
X189679285Y-101619761D01*
X189679285Y-101619761D02*
X189584047Y-101667380D01*
X189584047Y-101667380D02*
X189298333Y-101667380D01*
X189298333Y-101667380D02*
X189203095Y-101619761D01*
X189203095Y-101619761D02*
X189155476Y-101572142D01*
G04 #@! TO.C,R6*
X187658333Y-99157380D02*
X187325000Y-98681190D01*
X187086905Y-99157380D02*
X187086905Y-98157380D01*
X187086905Y-98157380D02*
X187467857Y-98157380D01*
X187467857Y-98157380D02*
X187563095Y-98205000D01*
X187563095Y-98205000D02*
X187610714Y-98252619D01*
X187610714Y-98252619D02*
X187658333Y-98347857D01*
X187658333Y-98347857D02*
X187658333Y-98490714D01*
X187658333Y-98490714D02*
X187610714Y-98585952D01*
X187610714Y-98585952D02*
X187563095Y-98633571D01*
X187563095Y-98633571D02*
X187467857Y-98681190D01*
X187467857Y-98681190D02*
X187086905Y-98681190D01*
X188515476Y-98157380D02*
X188325000Y-98157380D01*
X188325000Y-98157380D02*
X188229762Y-98205000D01*
X188229762Y-98205000D02*
X188182143Y-98252619D01*
X188182143Y-98252619D02*
X188086905Y-98395476D01*
X188086905Y-98395476D02*
X188039286Y-98585952D01*
X188039286Y-98585952D02*
X188039286Y-98966904D01*
X188039286Y-98966904D02*
X188086905Y-99062142D01*
X188086905Y-99062142D02*
X188134524Y-99109761D01*
X188134524Y-99109761D02*
X188229762Y-99157380D01*
X188229762Y-99157380D02*
X188420238Y-99157380D01*
X188420238Y-99157380D02*
X188515476Y-99109761D01*
X188515476Y-99109761D02*
X188563095Y-99062142D01*
X188563095Y-99062142D02*
X188610714Y-98966904D01*
X188610714Y-98966904D02*
X188610714Y-98728809D01*
X188610714Y-98728809D02*
X188563095Y-98633571D01*
X188563095Y-98633571D02*
X188515476Y-98585952D01*
X188515476Y-98585952D02*
X188420238Y-98538333D01*
X188420238Y-98538333D02*
X188229762Y-98538333D01*
X188229762Y-98538333D02*
X188134524Y-98585952D01*
X188134524Y-98585952D02*
X188086905Y-98633571D01*
X188086905Y-98633571D02*
X188039286Y-98728809D01*
G04 #@! TO.C,Q5*
X181619761Y-94262619D02*
X181524523Y-94215000D01*
X181524523Y-94215000D02*
X181429285Y-94119761D01*
X181429285Y-94119761D02*
X181286428Y-93976904D01*
X181286428Y-93976904D02*
X181191190Y-93929285D01*
X181191190Y-93929285D02*
X181095952Y-93929285D01*
X181143571Y-94167380D02*
X181048333Y-94119761D01*
X181048333Y-94119761D02*
X180953095Y-94024523D01*
X180953095Y-94024523D02*
X180905476Y-93834047D01*
X180905476Y-93834047D02*
X180905476Y-93500714D01*
X180905476Y-93500714D02*
X180953095Y-93310238D01*
X180953095Y-93310238D02*
X181048333Y-93215000D01*
X181048333Y-93215000D02*
X181143571Y-93167380D01*
X181143571Y-93167380D02*
X181334047Y-93167380D01*
X181334047Y-93167380D02*
X181429285Y-93215000D01*
X181429285Y-93215000D02*
X181524523Y-93310238D01*
X181524523Y-93310238D02*
X181572142Y-93500714D01*
X181572142Y-93500714D02*
X181572142Y-93834047D01*
X181572142Y-93834047D02*
X181524523Y-94024523D01*
X181524523Y-94024523D02*
X181429285Y-94119761D01*
X181429285Y-94119761D02*
X181334047Y-94167380D01*
X181334047Y-94167380D02*
X181143571Y-94167380D01*
X182476904Y-93167380D02*
X182000714Y-93167380D01*
X182000714Y-93167380D02*
X181953095Y-93643571D01*
X181953095Y-93643571D02*
X182000714Y-93595952D01*
X182000714Y-93595952D02*
X182095952Y-93548333D01*
X182095952Y-93548333D02*
X182334047Y-93548333D01*
X182334047Y-93548333D02*
X182429285Y-93595952D01*
X182429285Y-93595952D02*
X182476904Y-93643571D01*
X182476904Y-93643571D02*
X182524523Y-93738809D01*
X182524523Y-93738809D02*
X182524523Y-93976904D01*
X182524523Y-93976904D02*
X182476904Y-94072142D01*
X182476904Y-94072142D02*
X182429285Y-94119761D01*
X182429285Y-94119761D02*
X182334047Y-94167380D01*
X182334047Y-94167380D02*
X182095952Y-94167380D01*
X182095952Y-94167380D02*
X182000714Y-94119761D01*
X182000714Y-94119761D02*
X181953095Y-94072142D01*
G04 #@! TO.C,Q3*
X180719761Y-73162619D02*
X180624523Y-73115000D01*
X180624523Y-73115000D02*
X180529285Y-73019761D01*
X180529285Y-73019761D02*
X180386428Y-72876904D01*
X180386428Y-72876904D02*
X180291190Y-72829285D01*
X180291190Y-72829285D02*
X180195952Y-72829285D01*
X180243571Y-73067380D02*
X180148333Y-73019761D01*
X180148333Y-73019761D02*
X180053095Y-72924523D01*
X180053095Y-72924523D02*
X180005476Y-72734047D01*
X180005476Y-72734047D02*
X180005476Y-72400714D01*
X180005476Y-72400714D02*
X180053095Y-72210238D01*
X180053095Y-72210238D02*
X180148333Y-72115000D01*
X180148333Y-72115000D02*
X180243571Y-72067380D01*
X180243571Y-72067380D02*
X180434047Y-72067380D01*
X180434047Y-72067380D02*
X180529285Y-72115000D01*
X180529285Y-72115000D02*
X180624523Y-72210238D01*
X180624523Y-72210238D02*
X180672142Y-72400714D01*
X180672142Y-72400714D02*
X180672142Y-72734047D01*
X180672142Y-72734047D02*
X180624523Y-72924523D01*
X180624523Y-72924523D02*
X180529285Y-73019761D01*
X180529285Y-73019761D02*
X180434047Y-73067380D01*
X180434047Y-73067380D02*
X180243571Y-73067380D01*
X181005476Y-72067380D02*
X181624523Y-72067380D01*
X181624523Y-72067380D02*
X181291190Y-72448333D01*
X181291190Y-72448333D02*
X181434047Y-72448333D01*
X181434047Y-72448333D02*
X181529285Y-72495952D01*
X181529285Y-72495952D02*
X181576904Y-72543571D01*
X181576904Y-72543571D02*
X181624523Y-72638809D01*
X181624523Y-72638809D02*
X181624523Y-72876904D01*
X181624523Y-72876904D02*
X181576904Y-72972142D01*
X181576904Y-72972142D02*
X181529285Y-73019761D01*
X181529285Y-73019761D02*
X181434047Y-73067380D01*
X181434047Y-73067380D02*
X181148333Y-73067380D01*
X181148333Y-73067380D02*
X181053095Y-73019761D01*
X181053095Y-73019761D02*
X181005476Y-72972142D01*
G04 #@! TO.C,C7*
X206537979Y-78172142D02*
X206490360Y-78219761D01*
X206490360Y-78219761D02*
X206347503Y-78267380D01*
X206347503Y-78267380D02*
X206252265Y-78267380D01*
X206252265Y-78267380D02*
X206109408Y-78219761D01*
X206109408Y-78219761D02*
X206014170Y-78124523D01*
X206014170Y-78124523D02*
X205966551Y-78029285D01*
X205966551Y-78029285D02*
X205918932Y-77838809D01*
X205918932Y-77838809D02*
X205918932Y-77695952D01*
X205918932Y-77695952D02*
X205966551Y-77505476D01*
X205966551Y-77505476D02*
X206014170Y-77410238D01*
X206014170Y-77410238D02*
X206109408Y-77315000D01*
X206109408Y-77315000D02*
X206252265Y-77267380D01*
X206252265Y-77267380D02*
X206347503Y-77267380D01*
X206347503Y-77267380D02*
X206490360Y-77315000D01*
X206490360Y-77315000D02*
X206537979Y-77362619D01*
X206871313Y-77267380D02*
X207537979Y-77267380D01*
X207537979Y-77267380D02*
X207109408Y-78267380D01*
G04 #@! TO.C,J4*
X214466666Y-77737380D02*
X214466666Y-78451666D01*
X214466666Y-78451666D02*
X214419047Y-78594523D01*
X214419047Y-78594523D02*
X214323809Y-78689761D01*
X214323809Y-78689761D02*
X214180952Y-78737380D01*
X214180952Y-78737380D02*
X214085714Y-78737380D01*
X215371428Y-78070714D02*
X215371428Y-78737380D01*
X215133333Y-77689761D02*
X214895238Y-78404047D01*
X214895238Y-78404047D02*
X215514285Y-78404047D01*
G04 #@! TO.C,R8*
X189998333Y-107217380D02*
X189665000Y-106741190D01*
X189426905Y-107217380D02*
X189426905Y-106217380D01*
X189426905Y-106217380D02*
X189807857Y-106217380D01*
X189807857Y-106217380D02*
X189903095Y-106265000D01*
X189903095Y-106265000D02*
X189950714Y-106312619D01*
X189950714Y-106312619D02*
X189998333Y-106407857D01*
X189998333Y-106407857D02*
X189998333Y-106550714D01*
X189998333Y-106550714D02*
X189950714Y-106645952D01*
X189950714Y-106645952D02*
X189903095Y-106693571D01*
X189903095Y-106693571D02*
X189807857Y-106741190D01*
X189807857Y-106741190D02*
X189426905Y-106741190D01*
X190569762Y-106645952D02*
X190474524Y-106598333D01*
X190474524Y-106598333D02*
X190426905Y-106550714D01*
X190426905Y-106550714D02*
X190379286Y-106455476D01*
X190379286Y-106455476D02*
X190379286Y-106407857D01*
X190379286Y-106407857D02*
X190426905Y-106312619D01*
X190426905Y-106312619D02*
X190474524Y-106265000D01*
X190474524Y-106265000D02*
X190569762Y-106217380D01*
X190569762Y-106217380D02*
X190760238Y-106217380D01*
X190760238Y-106217380D02*
X190855476Y-106265000D01*
X190855476Y-106265000D02*
X190903095Y-106312619D01*
X190903095Y-106312619D02*
X190950714Y-106407857D01*
X190950714Y-106407857D02*
X190950714Y-106455476D01*
X190950714Y-106455476D02*
X190903095Y-106550714D01*
X190903095Y-106550714D02*
X190855476Y-106598333D01*
X190855476Y-106598333D02*
X190760238Y-106645952D01*
X190760238Y-106645952D02*
X190569762Y-106645952D01*
X190569762Y-106645952D02*
X190474524Y-106693571D01*
X190474524Y-106693571D02*
X190426905Y-106741190D01*
X190426905Y-106741190D02*
X190379286Y-106836428D01*
X190379286Y-106836428D02*
X190379286Y-107026904D01*
X190379286Y-107026904D02*
X190426905Y-107122142D01*
X190426905Y-107122142D02*
X190474524Y-107169761D01*
X190474524Y-107169761D02*
X190569762Y-107217380D01*
X190569762Y-107217380D02*
X190760238Y-107217380D01*
X190760238Y-107217380D02*
X190855476Y-107169761D01*
X190855476Y-107169761D02*
X190903095Y-107122142D01*
X190903095Y-107122142D02*
X190950714Y-107026904D01*
X190950714Y-107026904D02*
X190950714Y-106836428D01*
X190950714Y-106836428D02*
X190903095Y-106741190D01*
X190903095Y-106741190D02*
X190855476Y-106693571D01*
X190855476Y-106693571D02*
X190760238Y-106645952D01*
D11*
G04 #@! TO.C,U2*
X186065000Y-85260000D02*
X190065000Y-85260000D01*
X188065000Y-81040000D02*
X190065000Y-81040000D01*
G04 #@! TO.C,R7*
X186860436Y-61190000D02*
X191214564Y-61190000D01*
X186860436Y-64610000D02*
X191214564Y-64610000D01*
G04 #@! TO.C,U6*
X147540000Y-51550000D02*
X147540000Y-87230000D01*
X147540000Y-87230000D02*
X152840000Y-87230000D01*
X149190000Y-51550000D02*
X147540000Y-51550000D01*
X152840000Y-51550000D02*
X151190000Y-51550000D01*
X152840000Y-87230000D02*
X152840000Y-51550000D01*
X149190000Y-51550000D02*
G75*
G03*
X151190000Y-51550000I1000000J0D01*
G01*
G04 #@! TO.C,R5*
X187587742Y-97187500D02*
X188062258Y-97187500D01*
X187587742Y-98232500D02*
X188062258Y-98232500D01*
G04 #@! TO.C,J1*
X126670000Y-82290000D02*
X126670000Y-100130000D01*
X126670000Y-82290000D02*
X129330000Y-82290000D01*
X126670000Y-100130000D02*
X129330000Y-100130000D01*
X128000000Y-79690000D02*
X129330000Y-79690000D01*
X129330000Y-79690000D02*
X129330000Y-81020000D01*
X129330000Y-82290000D02*
X129330000Y-100130000D01*
G04 #@! TO.C,Q2*
X177527500Y-59775000D02*
X177527500Y-60125000D01*
X183647500Y-54755000D02*
X177527500Y-54755000D01*
X183647500Y-55055000D02*
X183647500Y-54755000D01*
X183647500Y-59825000D02*
X183647500Y-60125000D01*
X183647500Y-60125000D02*
X177527500Y-60125000D01*
G04 #@! TO.C,C2*
X178596248Y-61560000D02*
X180018752Y-61560000D01*
X178596248Y-63380000D02*
X180018752Y-63380000D01*
G04 #@! TO.C,Q4*
X177755000Y-85245000D02*
X177755000Y-85595000D01*
X183875000Y-80225000D02*
X177755000Y-80225000D01*
X183875000Y-80525000D02*
X183875000Y-80225000D01*
X183875000Y-85295000D02*
X183875000Y-85595000D01*
X183875000Y-85595000D02*
X177755000Y-85595000D01*
G04 #@! TO.C,Q6*
X178655000Y-106345000D02*
X178655000Y-106695000D01*
X184775000Y-101325000D02*
X178655000Y-101325000D01*
X184775000Y-101625000D02*
X184775000Y-101325000D01*
X184775000Y-106395000D02*
X184775000Y-106695000D01*
X184775000Y-106695000D02*
X178655000Y-106695000D01*
G04 #@! TO.C,R2*
X186460242Y-53127500D02*
X186934758Y-53127500D01*
X186460242Y-54172500D02*
X186934758Y-54172500D01*
G04 #@! TO.C,C6*
X179723748Y-108130000D02*
X181146252Y-108130000D01*
X179723748Y-109950000D02*
X181146252Y-109950000D01*
G04 #@! TO.C,J5*
X201650000Y-69670000D02*
X201650000Y-77410000D01*
X201650000Y-69670000D02*
X210280000Y-69670000D01*
X201650000Y-69790000D02*
X210280000Y-69790000D01*
X201650000Y-69908095D02*
X210280000Y-69908095D01*
X201650000Y-70026190D02*
X210280000Y-70026190D01*
X201650000Y-70144285D02*
X210280000Y-70144285D01*
X201650000Y-70262380D02*
X210280000Y-70262380D01*
X201650000Y-70380475D02*
X210280000Y-70380475D01*
X201650000Y-70498570D02*
X210280000Y-70498570D01*
X201650000Y-70616665D02*
X210280000Y-70616665D01*
X201650000Y-70734760D02*
X210280000Y-70734760D01*
X201650000Y-70852855D02*
X210280000Y-70852855D01*
X201650000Y-70970950D02*
X210280000Y-70970950D01*
X201650000Y-71089045D02*
X210280000Y-71089045D01*
X201650000Y-71207140D02*
X210280000Y-71207140D01*
X201650000Y-71325235D02*
X210280000Y-71325235D01*
X201650000Y-71443330D02*
X210280000Y-71443330D01*
X201650000Y-71561425D02*
X210280000Y-71561425D01*
X201650000Y-71679520D02*
X210280000Y-71679520D01*
X201650000Y-71797615D02*
X210280000Y-71797615D01*
X201650000Y-71915710D02*
X210280000Y-71915710D01*
X201650000Y-72033805D02*
X210280000Y-72033805D01*
X201650000Y-72151900D02*
X210280000Y-72151900D01*
X201650000Y-72270000D02*
X210280000Y-72270000D01*
X201650000Y-74810000D02*
X210280000Y-74810000D01*
X201650000Y-77410000D02*
X210280000Y-77410000D01*
X210280000Y-69670000D02*
X210280000Y-77410000D01*
X210280000Y-70640000D02*
X210630000Y-70640000D01*
X210280000Y-71360000D02*
X210630000Y-71360000D01*
X210280000Y-73180000D02*
X210690000Y-73180000D01*
X210280000Y-73900000D02*
X210690000Y-73900000D01*
X210280000Y-75720000D02*
X210690000Y-75720000D01*
X210280000Y-76440000D02*
X210690000Y-76440000D01*
X211740000Y-69670000D02*
X212850000Y-69670000D01*
X212850000Y-69670000D02*
X212850000Y-71000000D01*
G04 #@! TO.C,U4*
X109475000Y-70565000D02*
X112925000Y-70565000D01*
X109475000Y-70565000D02*
X107525000Y-70565000D01*
X109475000Y-65445000D02*
X111425000Y-65445000D01*
X109475000Y-65445000D02*
X107525000Y-65445000D01*
G04 #@! TO.C,Q1*
X177527500Y-53065000D02*
X177527500Y-53415000D01*
X183647500Y-48045000D02*
X177527500Y-48045000D01*
X183647500Y-48345000D02*
X183647500Y-48045000D01*
X183647500Y-53115000D02*
X183647500Y-53415000D01*
X183647500Y-53415000D02*
X177527500Y-53415000D01*
G04 #@! TO.C,U5*
X159830000Y-51470000D02*
X156380000Y-51470000D01*
X159830000Y-51470000D02*
X161780000Y-51470000D01*
X159830000Y-56590000D02*
X157880000Y-56590000D01*
X159830000Y-56590000D02*
X161780000Y-56590000D01*
G04 #@! TO.C,C3*
X186784420Y-73590000D02*
X187065580Y-73590000D01*
X186784420Y-74610000D02*
X187065580Y-74610000D01*
G04 #@! TO.C,C10*
X146013748Y-102290000D02*
X147436252Y-102290000D01*
X146013748Y-104110000D02*
X147436252Y-104110000D01*
G04 #@! TO.C,R4*
X186687742Y-78597500D02*
X187162258Y-78597500D01*
X186687742Y-79642500D02*
X187162258Y-79642500D01*
G04 #@! TO.C,C4*
X187033748Y-86690000D02*
X188456252Y-86690000D01*
X187033748Y-88510000D02*
X188456252Y-88510000D01*
G04 #@! TO.C,C1*
X186556920Y-48120000D02*
X186838080Y-48120000D01*
X186556920Y-49140000D02*
X186838080Y-49140000D01*
G04 #@! TO.C,R1*
X186460242Y-50617500D02*
X186934758Y-50617500D01*
X186460242Y-51662500D02*
X186934758Y-51662500D01*
G04 #@! TO.C,C5*
X187684420Y-94690000D02*
X187965580Y-94690000D01*
X187684420Y-95710000D02*
X187965580Y-95710000D01*
G04 #@! TO.C,U1*
X185837500Y-59790000D02*
X189837500Y-59790000D01*
X187837500Y-55570000D02*
X189837500Y-55570000D01*
G04 #@! TO.C,R3*
X186687742Y-76087500D02*
X187162258Y-76087500D01*
X186687742Y-77132500D02*
X187162258Y-77132500D01*
G04 #@! TO.C,U3*
X186965000Y-106360000D02*
X190965000Y-106360000D01*
X188965000Y-102140000D02*
X190965000Y-102140000D01*
G04 #@! TO.C,R6*
X187587742Y-99697500D02*
X188062258Y-99697500D01*
X187587742Y-100742500D02*
X188062258Y-100742500D01*
G04 #@! TO.C,Q5*
X178655000Y-99635000D02*
X178655000Y-99985000D01*
X184775000Y-94615000D02*
X178655000Y-94615000D01*
X184775000Y-94915000D02*
X184775000Y-94615000D01*
X184775000Y-99685000D02*
X184775000Y-99985000D01*
X184775000Y-99985000D02*
X178655000Y-99985000D01*
G04 #@! TO.C,Q3*
X177755000Y-78535000D02*
X177755000Y-78885000D01*
X183875000Y-73515000D02*
X177755000Y-73515000D01*
X183875000Y-73815000D02*
X183875000Y-73515000D01*
X183875000Y-78585000D02*
X183875000Y-78885000D01*
X183875000Y-78885000D02*
X177755000Y-78885000D01*
G04 #@! TO.C,C7*
X201225000Y-81275000D02*
X202225000Y-81275000D01*
X201725000Y-80775000D02*
X201725000Y-81775000D01*
X206704646Y-79070000D02*
X206704646Y-89230000D01*
X206744646Y-79070000D02*
X206744646Y-89230000D01*
X206784646Y-79070000D02*
X206784646Y-89230000D01*
X206824646Y-79071000D02*
X206824646Y-89229000D01*
X206864646Y-79072000D02*
X206864646Y-89228000D01*
X206904646Y-79073000D02*
X206904646Y-89227000D01*
X206944646Y-79075000D02*
X206944646Y-89225000D01*
X206984646Y-79077000D02*
X206984646Y-89223000D01*
X207024646Y-79080000D02*
X207024646Y-89220000D01*
X207064646Y-79082000D02*
X207064646Y-89218000D01*
X207104646Y-79085000D02*
X207104646Y-89215000D01*
X207144646Y-79088000D02*
X207144646Y-89212000D01*
X207184646Y-79092000D02*
X207184646Y-89208000D01*
X207224646Y-79096000D02*
X207224646Y-89204000D01*
X207264646Y-79100000D02*
X207264646Y-89200000D01*
X207304646Y-79105000D02*
X207304646Y-89195000D01*
X207344646Y-79110000D02*
X207344646Y-89190000D01*
X207384646Y-79115000D02*
X207384646Y-89185000D01*
X207425646Y-79120000D02*
X207425646Y-89180000D01*
X207465646Y-79126000D02*
X207465646Y-89174000D01*
X207505646Y-79132000D02*
X207505646Y-89168000D01*
X207545646Y-79139000D02*
X207545646Y-89161000D01*
X207585646Y-79146000D02*
X207585646Y-89154000D01*
X207625646Y-79153000D02*
X207625646Y-89147000D01*
X207665646Y-79160000D02*
X207665646Y-89140000D01*
X207705646Y-79168000D02*
X207705646Y-89132000D01*
X207745646Y-79176000D02*
X207745646Y-89124000D01*
X207785646Y-79185000D02*
X207785646Y-89115000D01*
X207825646Y-79194000D02*
X207825646Y-89106000D01*
X207865646Y-79203000D02*
X207865646Y-89097000D01*
X207905646Y-79212000D02*
X207905646Y-89088000D01*
X207945646Y-79222000D02*
X207945646Y-89078000D01*
X207985646Y-79232000D02*
X207985646Y-82909000D01*
X207985646Y-85391000D02*
X207985646Y-89068000D01*
X208025646Y-79243000D02*
X208025646Y-82909000D01*
X208025646Y-85391000D02*
X208025646Y-89057000D01*
X208065646Y-79253000D02*
X208065646Y-82909000D01*
X208065646Y-85391000D02*
X208065646Y-89047000D01*
X208105646Y-79265000D02*
X208105646Y-82909000D01*
X208105646Y-85391000D02*
X208105646Y-89035000D01*
X208145646Y-79276000D02*
X208145646Y-82909000D01*
X208145646Y-85391000D02*
X208145646Y-89024000D01*
X208185646Y-79288000D02*
X208185646Y-82909000D01*
X208185646Y-85391000D02*
X208185646Y-89012000D01*
X208225646Y-79300000D02*
X208225646Y-82909000D01*
X208225646Y-85391000D02*
X208225646Y-89000000D01*
X208265646Y-79313000D02*
X208265646Y-82909000D01*
X208265646Y-85391000D02*
X208265646Y-88987000D01*
X208305646Y-79326000D02*
X208305646Y-82909000D01*
X208305646Y-85391000D02*
X208305646Y-88974000D01*
X208345646Y-79339000D02*
X208345646Y-82909000D01*
X208345646Y-85391000D02*
X208345646Y-88961000D01*
X208385646Y-79353000D02*
X208385646Y-82909000D01*
X208385646Y-85391000D02*
X208385646Y-88947000D01*
X208425646Y-79367000D02*
X208425646Y-82909000D01*
X208425646Y-85391000D02*
X208425646Y-88933000D01*
X208465646Y-79382000D02*
X208465646Y-82909000D01*
X208465646Y-85391000D02*
X208465646Y-88918000D01*
X208505646Y-79396000D02*
X208505646Y-82909000D01*
X208505646Y-85391000D02*
X208505646Y-88904000D01*
X208545646Y-79412000D02*
X208545646Y-82909000D01*
X208545646Y-85391000D02*
X208545646Y-88888000D01*
X208585646Y-79427000D02*
X208585646Y-82909000D01*
X208585646Y-85391000D02*
X208585646Y-88873000D01*
X208625646Y-79443000D02*
X208625646Y-82909000D01*
X208625646Y-85391000D02*
X208625646Y-88857000D01*
X208665646Y-79460000D02*
X208665646Y-82909000D01*
X208665646Y-85391000D02*
X208665646Y-88840000D01*
X208705646Y-79476000D02*
X208705646Y-82909000D01*
X208705646Y-85391000D02*
X208705646Y-88824000D01*
X208745646Y-79493000D02*
X208745646Y-82909000D01*
X208745646Y-85391000D02*
X208745646Y-88807000D01*
X208785646Y-79511000D02*
X208785646Y-82909000D01*
X208785646Y-85391000D02*
X208785646Y-88789000D01*
X208825646Y-79529000D02*
X208825646Y-82909000D01*
X208825646Y-85391000D02*
X208825646Y-88771000D01*
X208865646Y-79547000D02*
X208865646Y-82909000D01*
X208865646Y-85391000D02*
X208865646Y-88753000D01*
X208905646Y-79566000D02*
X208905646Y-82909000D01*
X208905646Y-85391000D02*
X208905646Y-88734000D01*
X208945646Y-79586000D02*
X208945646Y-82909000D01*
X208945646Y-85391000D02*
X208945646Y-88714000D01*
X208985646Y-79605000D02*
X208985646Y-82909000D01*
X208985646Y-85391000D02*
X208985646Y-88695000D01*
X209025646Y-79625000D02*
X209025646Y-82909000D01*
X209025646Y-85391000D02*
X209025646Y-88675000D01*
X209065646Y-79646000D02*
X209065646Y-82909000D01*
X209065646Y-85391000D02*
X209065646Y-88654000D01*
X209105646Y-79667000D02*
X209105646Y-82909000D01*
X209105646Y-85391000D02*
X209105646Y-88633000D01*
X209145646Y-79688000D02*
X209145646Y-82909000D01*
X209145646Y-85391000D02*
X209145646Y-88612000D01*
X209185646Y-79710000D02*
X209185646Y-82909000D01*
X209185646Y-85391000D02*
X209185646Y-88590000D01*
X209225646Y-79733000D02*
X209225646Y-82909000D01*
X209225646Y-85391000D02*
X209225646Y-88567000D01*
X209265646Y-79755000D02*
X209265646Y-82909000D01*
X209265646Y-85391000D02*
X209265646Y-88545000D01*
X209305646Y-79779000D02*
X209305646Y-82909000D01*
X209305646Y-85391000D02*
X209305646Y-88521000D01*
X209345646Y-79803000D02*
X209345646Y-82909000D01*
X209345646Y-85391000D02*
X209345646Y-88497000D01*
X209385646Y-79827000D02*
X209385646Y-82909000D01*
X209385646Y-85391000D02*
X209385646Y-88473000D01*
X209425646Y-79852000D02*
X209425646Y-82909000D01*
X209425646Y-85391000D02*
X209425646Y-88448000D01*
X209465646Y-79877000D02*
X209465646Y-82909000D01*
X209465646Y-85391000D02*
X209465646Y-88423000D01*
X209505646Y-79903000D02*
X209505646Y-82909000D01*
X209505646Y-85391000D02*
X209505646Y-88397000D01*
X209545646Y-79929000D02*
X209545646Y-82909000D01*
X209545646Y-85391000D02*
X209545646Y-88371000D01*
X209585646Y-79956000D02*
X209585646Y-82909000D01*
X209585646Y-85391000D02*
X209585646Y-88344000D01*
X209625646Y-79984000D02*
X209625646Y-82909000D01*
X209625646Y-85391000D02*
X209625646Y-88316000D01*
X209665646Y-80012000D02*
X209665646Y-82909000D01*
X209665646Y-85391000D02*
X209665646Y-88288000D01*
X209705646Y-80040000D02*
X209705646Y-82909000D01*
X209705646Y-85391000D02*
X209705646Y-88260000D01*
X209745646Y-80070000D02*
X209745646Y-82909000D01*
X209745646Y-85391000D02*
X209745646Y-88230000D01*
X209785646Y-80100000D02*
X209785646Y-82909000D01*
X209785646Y-85391000D02*
X209785646Y-88200000D01*
X209825646Y-80130000D02*
X209825646Y-82909000D01*
X209825646Y-85391000D02*
X209825646Y-88170000D01*
X209865646Y-80161000D02*
X209865646Y-82909000D01*
X209865646Y-85391000D02*
X209865646Y-88139000D01*
X209905646Y-80193000D02*
X209905646Y-82909000D01*
X209905646Y-85391000D02*
X209905646Y-88107000D01*
X209945646Y-80225000D02*
X209945646Y-82909000D01*
X209945646Y-85391000D02*
X209945646Y-88075000D01*
X209985646Y-80258000D02*
X209985646Y-82909000D01*
X209985646Y-85391000D02*
X209985646Y-88042000D01*
X210025646Y-80292000D02*
X210025646Y-82909000D01*
X210025646Y-85391000D02*
X210025646Y-88008000D01*
X210065646Y-80326000D02*
X210065646Y-82909000D01*
X210065646Y-85391000D02*
X210065646Y-87974000D01*
X210105646Y-80361000D02*
X210105646Y-82909000D01*
X210105646Y-85391000D02*
X210105646Y-87939000D01*
X210145646Y-80397000D02*
X210145646Y-82909000D01*
X210145646Y-85391000D02*
X210145646Y-87903000D01*
X210185646Y-80434000D02*
X210185646Y-82909000D01*
X210185646Y-85391000D02*
X210185646Y-87866000D01*
X210225646Y-80471000D02*
X210225646Y-82909000D01*
X210225646Y-85391000D02*
X210225646Y-87829000D01*
X210265646Y-80510000D02*
X210265646Y-82909000D01*
X210265646Y-85391000D02*
X210265646Y-87790000D01*
X210305646Y-80549000D02*
X210305646Y-82909000D01*
X210305646Y-85391000D02*
X210305646Y-87751000D01*
X210345646Y-80589000D02*
X210345646Y-82909000D01*
X210345646Y-85391000D02*
X210345646Y-87711000D01*
X210385646Y-80630000D02*
X210385646Y-82909000D01*
X210385646Y-85391000D02*
X210385646Y-87670000D01*
X210425646Y-80672000D02*
X210425646Y-82909000D01*
X210425646Y-85391000D02*
X210425646Y-87628000D01*
X210465646Y-80714000D02*
X210465646Y-87586000D01*
X210505646Y-80758000D02*
X210505646Y-87542000D01*
X210545646Y-80803000D02*
X210545646Y-87497000D01*
X210585646Y-80849000D02*
X210585646Y-87451000D01*
X210625646Y-80896000D02*
X210625646Y-87404000D01*
X210665646Y-80944000D02*
X210665646Y-87356000D01*
X210705646Y-80994000D02*
X210705646Y-87306000D01*
X210745646Y-81044000D02*
X210745646Y-87256000D01*
X210785646Y-81096000D02*
X210785646Y-87204000D01*
X210825646Y-81150000D02*
X210825646Y-87150000D01*
X210865646Y-81205000D02*
X210865646Y-87095000D01*
X210905646Y-81261000D02*
X210905646Y-87039000D01*
X210945646Y-81320000D02*
X210945646Y-86980000D01*
X210985646Y-81380000D02*
X210985646Y-86920000D01*
X211025646Y-81441000D02*
X211025646Y-86859000D01*
X211065646Y-81505000D02*
X211065646Y-86795000D01*
X211105646Y-81571000D02*
X211105646Y-86729000D01*
X211145646Y-81640000D02*
X211145646Y-86660000D01*
X211185646Y-81711000D02*
X211185646Y-86589000D01*
X211225646Y-81785000D02*
X211225646Y-86515000D01*
X211265646Y-81861000D02*
X211265646Y-86439000D01*
X211305646Y-81941000D02*
X211305646Y-86359000D01*
X211345646Y-82025000D02*
X211345646Y-86275000D01*
X211385646Y-82113000D02*
X211385646Y-86187000D01*
X211425646Y-82206000D02*
X211425646Y-86094000D01*
X211465646Y-82304000D02*
X211465646Y-85996000D01*
X211505646Y-82408000D02*
X211505646Y-85892000D01*
X211545646Y-82520000D02*
X211545646Y-85780000D01*
X211585646Y-82640000D02*
X211585646Y-85660000D01*
X211625646Y-82772000D02*
X211625646Y-85528000D01*
X211665646Y-82920000D02*
X211665646Y-85380000D01*
X211705646Y-83088000D02*
X211705646Y-85212000D01*
X211745646Y-83288000D02*
X211745646Y-85012000D01*
X211785646Y-83551000D02*
X211785646Y-84749000D01*
X211824646Y-84150000D02*
G75*
G03*
X211824646Y-84150000I-5120000J0D01*
G01*
G04 #@! TO.C,J4*
X213470000Y-79370000D02*
X214800000Y-79370000D01*
X213470000Y-80700000D02*
X213470000Y-79370000D01*
X213470000Y-81970000D02*
X213470000Y-84570000D01*
X213470000Y-81970000D02*
X216130000Y-81970000D01*
X213470000Y-84570000D02*
X216130000Y-84570000D01*
X216130000Y-81970000D02*
X216130000Y-84570000D01*
G04 #@! TO.C,R8*
X187987936Y-107760000D02*
X192342064Y-107760000D01*
X187987936Y-111180000D02*
X192342064Y-111180000D01*
G04 #@! TD*
M02*
