M48
; DRILL file {KiCad (7.0.0)} date Thu Mar  9 15:00:38 2023
; FORMAT={-:-/ absolute / metric / decimal}
; #@! TF.CreationDate,2023-03-09T15:00:38+01:00
; #@! TF.GenerationSoftware,Kicad,Pcbnew,(7.0.0)
; #@! TF.FileFunction,MixedPlating,1,2
FMAT,2
METRIC
; #@! TA.AperFunction,Plated,PTH,ComponentDrill
T1C0.800
; #@! TA.AperFunction,Plated,PTH,ComponentDrill
T2C1.000
%
G90
G05
T1
X146.38Y-52.88
X146.38Y-55.42
X146.38Y-57.96
X146.38Y-60.5
X146.38Y-63.04
X146.38Y-65.58
X146.38Y-68.12
X146.38Y-70.66
X146.38Y-73.2
X146.38Y-75.74
X146.38Y-78.28
X146.38Y-80.82
X146.38Y-83.36
X146.38Y-85.9
X154.0Y-52.88
X154.0Y-55.42
X154.0Y-57.96
X154.0Y-60.5
X154.0Y-63.04
X154.0Y-65.58
X154.0Y-68.12
X154.0Y-70.66
X154.0Y-73.2
X154.0Y-75.74
X154.0Y-78.28
X154.0Y-80.82
X154.0Y-83.36
X154.0Y-85.9
T2
X128.0Y-81.02
X128.0Y-83.56
X128.0Y-86.1
X128.0Y-88.64
X128.0Y-91.18
X128.0Y-93.72
X128.0Y-96.26
X128.0Y-98.8
X204.205Y-84.15
X209.205Y-84.15
X211.74Y-71.0
X211.74Y-73.54
X211.74Y-76.08
X214.8Y-80.7
X214.8Y-83.24
T0
M30
