G04 #@! TF.GenerationSoftware,KiCad,Pcbnew,(7.0.0)*
G04 #@! TF.CreationDate,2023-03-09T15:00:38+01:00*
G04 #@! TF.ProjectId,asmTest,61736d54-6573-4742-9e6b-696361645f70,rev?*
G04 #@! TF.SameCoordinates,Original*
G04 #@! TF.FileFunction,Soldermask,Bot*
G04 #@! TF.FilePolarity,Negative*
%FSLAX46Y46*%
G04 Gerber Fmt 4.6, Leading zero omitted, Abs format (unit mm)*
G04 Created by KiCad (PCBNEW (7.0.0)) date 2023-03-09 15:00:38*
%MOMM*%
%LPD*%
G01*
G04 APERTURE LIST*
%ADD10R,1.600000X1.600000*%
%ADD11O,1.600000X1.600000*%
%ADD12R,1.700000X1.700000*%
%ADD13O,1.700000X1.700000*%
%ADD14R,2.000000X2.000000*%
%ADD15C,2.000000*%
G04 APERTURE END LIST*
D10*
G04 #@! TO.C,U6*
X146379999Y-52879999D03*
D11*
X146379999Y-55419999D03*
X146379999Y-57959999D03*
X146379999Y-60499999D03*
X146379999Y-63039999D03*
X146379999Y-65579999D03*
X146379999Y-68119999D03*
X146379999Y-70659999D03*
X146379999Y-73199999D03*
X146379999Y-75739999D03*
X146379999Y-78279999D03*
X146379999Y-80819999D03*
X146379999Y-83359999D03*
X146379999Y-85899999D03*
X153999999Y-85899999D03*
X153999999Y-83359999D03*
X153999999Y-80819999D03*
X153999999Y-78279999D03*
X153999999Y-75739999D03*
X153999999Y-73199999D03*
X153999999Y-70659999D03*
X153999999Y-68119999D03*
X153999999Y-65579999D03*
X153999999Y-63039999D03*
X153999999Y-60499999D03*
X153999999Y-57959999D03*
X153999999Y-55419999D03*
X153999999Y-52879999D03*
G04 #@! TD*
D12*
G04 #@! TO.C,J1*
X127999999Y-81019999D03*
D13*
X127999999Y-83559999D03*
X127999999Y-86099999D03*
X127999999Y-88639999D03*
X127999999Y-91179999D03*
X127999999Y-93719999D03*
X127999999Y-96259999D03*
X127999999Y-98799999D03*
G04 #@! TD*
D12*
G04 #@! TO.C,J5*
X211739999Y-70999999D03*
D13*
X211739999Y-73539999D03*
X211739999Y-76079999D03*
G04 #@! TD*
D14*
G04 #@! TO.C,C7*
X204204645Y-84149999D03*
D15*
X209204646Y-84150000D03*
G04 #@! TD*
D12*
G04 #@! TO.C,J4*
X214799999Y-80699999D03*
D13*
X214799999Y-83239999D03*
G04 #@! TD*
M02*
